<svg width="1351" height="300" viewBox="0 0 1351 467" fill="none" xmlns="http://www.w3.org/2000/svg">
<g filter="url(#filter0_d_11_6)">
<mask id="path-1-outside-1_11_6" maskUnits="userSpaceOnUse" x="51" y="105" width="1261" height="310" fill="black">
<rect fill="white" x="51" y="105" width="1261" height="310"/>
<path d="M143.731 233.84L212.611 331H170.891L110.971 243.92L95.5709 331H63.6509L98.0909 136.4H130.011L114.331 225.16L205.611 136.4H245.651L143.731 233.84ZM287.878 156.28C282.838 156.28 278.732 154.693 275.558 151.52C272.385 148.347 270.798 144.333 270.798 139.48C270.798 132.947 273.225 127.347 278.078 122.68C283.118 117.827 288.812 115.4 295.158 115.4C300.198 115.4 304.212 116.987 307.198 120.16C310.372 123.333 311.958 127.347 311.958 132.2C311.958 138.733 309.532 144.427 304.678 149.28C299.825 153.947 294.225 156.28 287.878 156.28ZM299.918 176.72L272.758 331H240.838L267.998 176.72H299.918ZM420.227 174.2C436.467 174.2 449.347 178.587 458.867 187.36C468.573 195.947 473.427 208.36 473.427 224.6C473.427 228.707 472.96 233.84 472.027 240L455.787 331H424.147L439.547 244.76C440.293 239.533 440.667 235.8 440.667 233.56C440.667 223.293 437.773 215.453 431.987 210.04C426.387 204.627 418.547 201.92 408.467 201.92C396.333 201.92 386.067 205.653 377.667 213.12C369.453 220.4 364.227 230.947 361.987 244.76V243.92L346.587 331H314.667L341.827 176.72H373.747L370.667 194.64C377.013 188.293 384.48 183.347 393.067 179.8C401.84 176.067 410.893 174.2 420.227 174.2ZM543.543 156.28C538.503 156.28 534.396 154.693 531.222 151.52C528.049 148.347 526.463 144.333 526.463 139.48C526.463 132.947 528.889 127.347 533.743 122.68C538.783 117.827 544.476 115.4 550.823 115.4C555.863 115.4 559.876 116.987 562.863 120.16C566.036 123.333 567.623 127.347 567.623 132.2C567.623 138.733 565.196 144.427 560.343 149.28C555.489 153.947 549.889 156.28 543.543 156.28ZM523.103 361.24C520.489 376.36 514.796 387.28 506.023 394C497.249 400.907 485.676 404.36 471.302 404.36H454.782L459.542 377.48H470.462C476.996 377.48 481.849 376.173 485.022 373.56C488.196 371.133 490.249 367.027 491.183 361.24L523.663 176.72H555.583L523.103 361.24ZM664.411 174.2C683.637 174.2 698.944 179.613 710.331 190.44C721.904 201.267 727.691 215.827 727.691 234.12C727.691 238.413 727.224 243.547 726.291 249.52C725.544 253.627 724.237 258.667 722.371 264.64H604.491C604.304 265.947 604.211 267.907 604.211 270.52C604.211 281.533 607.571 290.307 614.291 296.84C621.197 303.373 630.157 306.64 641.171 306.64C658.531 306.64 671.877 299.453 681.211 285.08H715.651C708.557 299.267 698.104 310.933 684.291 320.08C670.477 329.04 654.517 333.52 636.411 333.52C623.531 333.52 612.237 331 602.531 325.96C592.824 320.92 585.264 313.733 579.851 304.4C574.437 294.88 571.731 283.773 571.731 271.08C571.731 265.667 572.291 259.88 573.411 253.72C576.211 237.853 581.904 223.947 590.491 212C599.077 199.867 609.717 190.533 622.411 184C635.291 177.467 649.291 174.2 664.411 174.2ZM694.371 241.68C694.744 238.32 694.931 235.893 694.931 234.4C694.931 224.133 691.477 216.013 684.571 210.04C677.851 204.067 669.077 201.08 658.251 201.08C646.864 201.08 636.597 204.72 627.451 212C618.304 219.28 612.051 229.173 608.691 241.68H694.371ZM746.223 253.72C749.023 237.853 754.623 223.947 763.023 212C771.61 199.867 782.156 190.533 794.663 184C807.356 177.467 821.076 174.2 835.823 174.2C854.49 174.2 869.143 178.68 879.783 187.64C890.423 196.413 896.49 209.013 897.983 225.44H863.543C862.05 217.787 858.596 211.813 853.183 207.52C847.77 203.227 840.396 201.08 831.063 201.08C817.996 201.08 806.796 205.747 797.463 215.08C788.13 224.227 781.97 237.107 778.983 253.72C778.05 259.693 777.583 264.547 777.583 268.28C777.583 280.6 780.663 290.12 786.823 296.84C792.983 303.373 801.57 306.64 812.583 306.64C831.063 306.64 844.69 298.52 853.463 282.28H887.903C880.623 297.96 869.983 310.467 855.983 319.8C842.17 328.947 826.116 333.52 807.823 333.52C788.41 333.52 773.01 328.013 761.623 317C750.236 305.8 744.543 290.68 744.543 271.64C744.543 265.853 745.103 259.88 746.223 253.72ZM955.834 288.16C955.46 290.773 955.274 292.453 955.274 293.2C955.274 297.12 956.487 300.013 958.914 301.88C961.34 303.56 965.354 304.4 970.954 304.4H990.554L985.794 331H960.594C948.274 331 938.847 328.573 932.314 323.72C925.78 318.68 922.514 310.747 922.514 299.92C922.514 295.813 922.887 291.893 923.634 288.16L938.754 202.76H920.554L925.034 176.72H943.514L950.234 138.36H982.434L975.714 176.72H1012.95L1008.47 202.76H970.954L955.834 288.16ZM1082.69 333.52C1069.63 333.52 1058.15 330.813 1048.25 325.4C1038.36 319.987 1030.61 312.333 1025.01 302.44C1019.6 292.547 1016.89 281.253 1016.89 268.56C1016.89 251.2 1020.91 235.333 1028.93 220.96C1037.15 206.587 1048.35 195.2 1062.53 186.8C1076.91 178.4 1092.87 174.2 1110.41 174.2C1123.48 174.2 1135.05 177 1145.13 182.6C1155.21 188.013 1163.05 195.667 1168.65 205.56C1174.44 215.267 1177.33 226.56 1177.33 239.44C1177.33 256.8 1173.13 272.667 1164.73 287.04C1156.33 301.413 1144.95 312.8 1130.57 321.2C1116.2 329.413 1100.24 333.52 1082.69 333.52ZM1086.61 306.64C1097.25 306.64 1106.96 303.653 1115.73 297.68C1124.69 291.52 1131.69 283.493 1136.73 273.6C1141.77 263.52 1144.29 252.787 1144.29 241.4C1144.29 228.52 1140.65 218.627 1133.37 211.72C1126.09 204.627 1116.95 201.08 1105.93 201.08C1095.11 201.08 1085.4 204.16 1076.81 210.32C1068.41 216.293 1061.79 224.413 1056.93 234.68C1052.27 244.76 1049.93 255.587 1049.93 267.16C1049.93 279.667 1053.29 289.373 1060.01 296.28C1066.92 303.187 1075.79 306.64 1086.61 306.64ZM1248.09 203.88C1254.43 194.547 1261.9 187.267 1270.49 182.04C1279.26 176.813 1288.97 174.2 1299.61 174.2L1293.73 207.24H1285.61C1273.29 207.24 1263.39 210.32 1255.93 216.48C1248.46 222.64 1243.23 233.28 1240.25 248.4L1225.69 331H1193.77L1220.93 176.72H1252.85L1248.09 203.88Z"/>
</mask>
<path d="M143.731 233.84L136.821 226.612L130.579 232.579L135.573 239.623L143.731 233.84ZM212.611 331V341H231.958L220.769 325.217L212.611 331ZM170.891 331L162.653 336.669L165.633 341H170.891V331ZM110.971 243.92L119.209 238.251L105.374 218.145L101.124 242.179L110.971 243.92ZM95.5709 331V341H103.958L105.418 332.741L95.5709 331ZM63.6509 331L53.804 329.257L51.7258 341H63.6509V331ZM98.0909 136.4V126.4H89.7053L88.244 134.657L98.0909 136.4ZM130.011 136.4L139.858 138.14L141.932 126.4H130.011V136.4ZM114.331 225.16L104.483 223.42L99.0948 253.924L121.302 232.329L114.331 225.16ZM205.611 136.4V126.4H201.551L198.64 129.231L205.611 136.4ZM245.651 136.4L252.561 143.628L270.582 126.4H245.651V136.4ZM135.573 239.623L204.453 336.783L220.769 325.217L151.889 228.057L135.573 239.623ZM212.611 321H170.891V341H212.611V321ZM179.129 325.331L119.209 238.251L102.733 249.589L162.653 336.669L179.129 325.331ZM101.124 242.179L85.7237 329.259L105.418 332.741L120.818 245.661L101.124 242.179ZM95.5709 321H63.6509V341H95.5709V321ZM73.4979 332.743L107.938 138.143L88.244 134.657L53.804 329.257L73.4979 332.743ZM98.0909 146.4H130.011V126.4H98.0909V146.4ZM120.163 134.66L104.483 223.42L124.178 226.9L139.858 138.14L120.163 134.66ZM121.302 232.329L212.582 143.569L198.64 129.231L107.36 217.991L121.302 232.329ZM205.611 146.4H245.651V126.4H205.611V146.4ZM238.741 129.172L136.821 226.612L150.641 241.068L252.561 143.628L238.741 129.172ZM275.558 151.52L268.487 158.591L275.558 151.52ZM278.078 122.68L285.01 129.888L285.015 129.883L278.078 122.68ZM307.198 120.16L299.916 127.014L300.02 127.124L300.127 127.231L307.198 120.16ZM304.678 149.28L311.61 156.488L311.68 156.42L311.75 156.351L304.678 149.28ZM299.918 176.72L309.767 178.454L311.833 166.72H299.918V176.72ZM272.758 331V341H281.152L282.607 332.734L272.758 331ZM240.838 331L230.99 329.266L228.924 341H240.838V331ZM267.998 176.72V166.72H259.605L258.15 174.986L267.998 176.72ZM287.878 146.28C285.134 146.28 283.69 145.509 282.63 144.449L268.487 158.591C273.774 163.878 280.543 166.28 287.878 166.28V146.28ZM282.63 144.449C281.494 143.313 280.798 141.92 280.798 139.48H260.798C260.798 146.747 263.277 153.38 268.487 158.591L282.63 144.449ZM280.798 139.48C280.798 135.759 282.05 132.734 285.01 129.888L271.147 115.472C264.401 121.959 260.798 130.134 260.798 139.48H280.798ZM285.015 129.883C288.4 126.624 291.674 125.4 295.158 125.4V105.4C285.949 105.4 277.837 109.03 271.142 115.477L285.015 129.883ZM295.158 125.4C297.913 125.4 299.12 126.168 299.916 127.014L314.48 113.306C309.303 107.806 302.484 105.4 295.158 105.4V125.4ZM300.127 127.231C301.263 128.367 301.958 129.76 301.958 132.2H321.958C321.958 124.933 319.48 118.3 314.27 113.089L300.127 127.231ZM301.958 132.2C301.958 135.936 300.691 139.125 297.607 142.209L311.75 156.351C318.373 149.728 321.958 141.531 321.958 132.2H301.958ZM297.747 142.072C294.632 145.067 291.472 146.28 287.878 146.28V166.28C296.978 166.28 305.018 162.826 311.61 156.488L297.747 142.072ZM290.07 174.986L262.91 329.266L282.607 332.734L309.767 178.454L290.07 174.986ZM272.758 321H240.838V341H272.758V321ZM250.687 332.734L277.847 178.454L258.15 174.986L230.99 329.266L250.687 332.734ZM267.998 186.72H299.918V166.72H267.998V186.72ZM458.867 187.36L452.09 194.714L452.165 194.783L452.241 194.85L458.867 187.36ZM472.027 240L481.871 241.757L481.894 241.628L481.914 241.498L472.027 240ZM455.787 331V341H464.16L465.631 332.757L455.787 331ZM424.147 331L414.302 329.242L412.203 341H424.147V331ZM439.547 244.76L449.391 246.518L449.421 246.347L449.446 246.174L439.547 244.76ZM431.987 210.04L425.036 217.23L425.095 217.287L425.155 217.343L431.987 210.04ZM377.667 213.12L384.3 220.603L384.31 220.594L377.667 213.12ZM361.987 244.76H351.987L371.858 246.361L361.987 244.76ZM361.987 243.92H371.987L352.139 242.179L361.987 243.92ZM346.587 331V341H354.973L356.434 332.741L346.587 331ZM314.667 331L304.818 329.266L302.752 341H314.667V331ZM341.827 176.72V166.72H333.433L331.978 174.986L341.827 176.72ZM373.747 176.72L383.602 178.414L385.612 166.72H373.747V176.72ZM370.667 194.64L360.811 192.946L355.479 223.97L377.738 201.711L370.667 194.64ZM393.067 179.8L396.884 189.043L396.933 189.022L396.982 189.002L393.067 179.8ZM420.227 184.2C434.621 184.2 444.854 188.045 452.09 194.714L465.643 180.006C453.84 169.128 438.312 164.2 420.227 164.2V184.2ZM452.241 194.85C459.279 201.076 463.427 210.444 463.427 224.6H483.427C483.427 206.276 477.867 190.817 465.492 179.87L452.241 194.85ZM463.427 224.6C463.427 228.02 463.032 232.612 462.139 238.502L481.914 241.498C482.888 235.068 483.427 229.394 483.427 224.6H463.427ZM462.182 238.243L445.942 329.243L465.631 332.757L481.871 241.757L462.182 238.243ZM455.787 321H424.147V341H455.787V321ZM433.991 332.758L449.391 246.518L429.702 243.002L414.302 329.242L433.991 332.758ZM449.446 246.174C450.194 240.936 450.667 236.579 450.667 233.56H430.667C430.667 235.021 430.392 238.131 429.647 243.346L449.446 246.174ZM450.667 233.56C450.667 221.389 447.18 210.56 438.818 202.737L425.155 217.343C428.366 220.347 430.667 225.198 430.667 233.56H450.667ZM438.937 202.85C430.971 195.15 420.348 191.92 408.467 191.92V211.92C416.745 211.92 421.802 214.103 425.036 217.23L438.937 202.85ZM408.467 191.92C394.096 191.92 381.406 196.417 371.023 205.646L384.31 220.594C390.728 214.89 398.571 211.92 408.467 211.92V191.92ZM371.033 205.637C360.667 214.825 354.621 227.708 352.116 243.159L371.858 246.361C373.832 234.185 378.24 225.975 384.3 220.603L371.033 205.637ZM371.987 244.76V243.92H351.987V244.76H371.987ZM352.139 242.179L336.739 329.259L356.434 332.741L371.834 245.661L352.139 242.179ZM346.587 321H314.667V341H346.587V321ZM324.515 332.734L351.675 178.454L331.978 174.986L304.818 329.266L324.515 332.734ZM341.827 186.72H373.747V166.72H341.827V186.72ZM363.891 175.026L360.811 192.946L380.522 196.334L383.602 178.414L363.891 175.026ZM377.738 201.711C383.121 196.328 389.471 192.105 396.884 189.043L389.249 170.557C379.489 174.589 370.906 180.259 363.595 187.569L377.738 201.711ZM396.982 189.002C404.545 185.783 412.268 184.2 420.227 184.2V164.2C409.518 164.2 399.135 166.35 389.151 170.598L396.982 189.002ZM531.223 151.52L524.151 158.591L531.223 151.52ZM533.742 122.68L540.674 129.888L540.679 129.883L533.742 122.68ZM562.863 120.16L555.581 127.014L555.684 127.124L555.791 127.231L562.863 120.16ZM560.342 149.28L567.274 156.488L567.344 156.42L567.414 156.351L560.342 149.28ZM523.103 361.24L513.254 359.506L513.251 359.522L513.249 359.537L523.103 361.24ZM506.022 394L499.942 386.061L499.889 386.102L499.837 386.143L506.022 394ZM454.783 404.36L444.936 402.616L442.856 414.36H454.783V404.36ZM459.543 377.48V367.48H451.158L449.696 375.736L459.543 377.48ZM485.022 373.56L478.948 365.616L478.805 365.726L478.665 365.841L485.022 373.56ZM491.182 361.24L481.334 359.506L481.322 359.577L481.31 359.648L491.182 361.24ZM523.663 176.72V166.72H515.269L513.814 174.986L523.663 176.72ZM555.582 176.72L565.431 178.454L567.496 166.72H555.582V176.72ZM543.543 146.28C540.798 146.28 539.354 145.509 538.294 144.449L524.151 158.591C529.438 163.878 536.207 166.28 543.543 166.28V146.28ZM538.294 144.449C537.158 143.313 536.462 141.92 536.462 139.48H516.462C516.462 146.747 518.941 153.38 524.151 158.591L538.294 144.449ZM536.462 139.48C536.462 135.759 537.714 132.734 540.674 129.888L526.811 115.472C520.065 121.959 516.462 130.134 516.462 139.48H536.462ZM540.679 129.883C544.064 126.624 547.338 125.4 550.823 125.4V105.4C541.613 105.4 533.501 109.03 526.806 115.477L540.679 129.883ZM550.823 125.4C553.577 125.4 554.784 126.168 555.581 127.014L570.145 113.306C564.967 107.806 558.148 105.4 550.823 105.4V125.4ZM555.791 127.231C556.927 128.367 557.622 129.76 557.622 132.2H577.622C577.622 124.933 575.144 118.3 569.934 113.089L555.791 127.231ZM557.622 132.2C557.622 135.936 556.355 139.125 553.271 142.209L567.414 156.351C574.037 149.728 577.622 141.531 577.622 132.2H557.622ZM553.411 142.072C550.296 145.067 547.136 146.28 543.543 146.28V166.28C552.642 166.28 560.682 162.826 567.274 156.488L553.411 142.072ZM513.249 359.537C510.896 373.147 506.054 381.379 499.942 386.061L512.103 401.939C523.537 393.181 530.082 379.573 532.956 362.943L513.249 359.537ZM499.837 386.143C493.278 391.306 484.084 394.36 471.302 394.36V414.36C487.268 414.36 501.22 410.508 512.208 401.857L499.837 386.143ZM471.302 394.36H454.783V414.36H471.302V394.36ZM464.629 406.104L469.389 379.224L449.696 375.736L444.936 402.616L464.629 406.104ZM459.543 387.48H470.462V367.48H459.543V387.48ZM470.462 387.48C478.032 387.48 485.627 386.017 491.38 381.279L478.665 365.841C478.071 366.33 475.96 367.48 470.462 367.48V387.48ZM491.097 381.504C497.078 376.93 499.902 369.977 501.055 362.832L481.31 359.648C480.596 364.076 479.313 365.337 478.948 365.616L491.097 381.504ZM501.031 362.974L533.511 178.454L513.814 174.986L481.334 359.506L501.031 362.974ZM523.663 186.72H555.582V166.72H523.663V186.72ZM545.734 174.986L513.254 359.506L532.951 362.974L565.431 178.454L545.734 174.986ZM710.331 190.44L703.44 197.687L703.469 197.715L703.499 197.743L710.331 190.44ZM726.291 249.52L736.129 251.309L736.152 251.187L736.171 251.064L726.291 249.52ZM722.371 264.64V274.64H729.723L731.915 267.623L722.371 264.64ZM604.491 264.64V254.64H595.818L594.591 263.226L604.491 264.64ZM614.291 296.84L607.32 304.01L607.369 304.058L607.419 304.105L614.291 296.84ZM681.211 285.08V275.08H675.781L672.824 279.634L681.211 285.08ZM715.651 285.08L724.595 289.552L731.831 275.08H715.651V285.08ZM684.291 320.08L689.733 328.47L689.772 328.444L689.812 328.418L684.291 320.08ZM602.531 325.96L607.139 317.085L602.531 325.96ZM579.851 304.4L571.158 309.343L571.179 309.38L571.2 309.417L579.851 304.4ZM573.411 253.72L583.249 255.509L583.254 255.483L583.258 255.458L573.411 253.72ZM590.491 212L598.611 217.836L598.632 217.807L598.653 217.777L590.491 212ZM622.411 184L617.887 175.082L617.86 175.095L617.834 175.109L622.411 184ZM694.371 241.68V251.68H703.321L704.309 242.784L694.371 241.68ZM684.571 210.04L677.927 217.514L677.978 217.559L678.029 217.604L684.571 210.04ZM608.691 241.68L599.033 239.085L595.649 251.68H608.691V241.68ZM664.411 184.2C681.678 184.2 694.309 189.005 703.44 197.687L717.221 183.193C703.579 170.222 685.597 164.2 664.411 164.2V184.2ZM703.499 197.743C712.733 206.381 717.691 218.127 717.691 234.12H737.691C737.691 213.526 731.075 196.152 717.162 183.137L703.499 197.743ZM717.691 234.12C717.691 237.735 717.294 242.325 716.411 247.976L736.171 251.064C737.154 244.768 737.691 239.091 737.691 234.12H717.691ZM716.452 247.731C715.805 251.289 714.624 255.903 712.826 261.657L731.915 267.623C733.851 261.43 735.283 255.965 736.129 251.309L716.452 247.731ZM722.371 254.64H604.491V274.64H722.371V254.64ZM594.591 263.226C594.301 265.259 594.211 267.797 594.211 270.52H614.211C614.211 268.016 614.307 266.634 614.39 266.054L594.591 263.226ZM594.211 270.52C594.211 283.723 598.325 295.265 607.32 304.01L621.261 289.67C616.817 285.349 614.211 279.344 614.211 270.52H594.211ZM607.419 304.105C616.475 312.672 628.036 316.64 641.171 316.64V296.64C632.279 296.64 625.919 294.075 621.163 289.575L607.419 304.105ZM641.171 316.64C661.864 316.64 678.391 307.784 689.598 290.526L672.824 279.634C665.363 291.123 655.198 296.64 641.171 296.64V316.64ZM681.211 295.08H715.651V275.08H681.211V295.08ZM706.706 280.608C700.432 293.157 691.191 303.517 678.77 311.742L689.812 328.418C705.017 318.349 716.683 305.376 724.595 289.552L706.706 280.608ZM678.849 311.69C666.816 319.496 652.786 323.52 636.411 323.52V343.52C656.249 343.52 674.139 338.584 689.733 328.47L678.849 311.69ZM636.411 323.52C624.85 323.52 615.189 321.265 607.139 317.085L597.922 334.835C609.285 340.735 622.211 343.52 636.411 343.52V323.52ZM607.139 317.085C599.094 312.908 592.947 307.049 588.501 299.383L571.2 309.417C577.581 320.418 586.554 328.932 597.922 334.835L607.139 317.085ZM588.544 299.457C584.115 291.668 581.731 282.319 581.731 271.08H561.731C561.731 285.228 564.76 298.092 571.158 309.343L588.544 299.457ZM581.731 271.08C581.731 266.351 582.22 261.168 583.249 255.509L563.572 251.931C562.361 258.592 561.731 264.982 561.731 271.08H581.731ZM583.258 255.458C585.823 240.927 590.981 228.451 598.611 217.836L582.37 206.164C572.827 219.442 566.599 234.78 563.563 251.982L583.258 255.458ZM598.653 217.777C606.352 206.899 615.782 198.659 626.987 192.891L617.834 175.109C603.653 182.408 591.803 192.835 582.328 206.223L598.653 217.777ZM626.934 192.918C638.346 187.13 650.787 184.2 664.411 184.2V164.2C647.795 164.2 632.235 167.804 617.887 175.082L626.934 192.918ZM704.309 242.784C704.686 239.397 704.931 236.493 704.931 234.4H684.931C684.931 235.293 684.802 237.243 684.432 240.576L704.309 242.784ZM704.931 234.4C704.931 221.633 700.503 210.598 691.112 202.476L678.029 217.604C682.452 221.428 684.931 226.633 684.931 234.4H704.931ZM691.214 202.566C682.306 194.647 671.001 191.08 658.251 191.08V211.08C667.153 211.08 673.395 213.486 677.927 217.514L691.214 202.566ZM658.251 191.08C644.537 191.08 632.089 195.528 621.223 204.176L633.678 219.824C641.106 213.912 649.191 211.08 658.251 211.08V191.08ZM621.223 204.176C610.223 212.931 602.885 224.748 599.033 239.085L618.348 244.275C621.216 233.599 626.385 225.629 633.678 219.824L621.223 204.176ZM608.691 251.68H694.371V231.68H608.691V251.68ZM746.223 253.72L756.062 255.509L756.066 255.483L756.071 255.458L746.223 253.72ZM763.023 212L754.86 206.223L754.852 206.236L754.843 206.248L763.023 212ZM794.663 184L790.087 175.109L790.06 175.122L790.033 175.137L794.663 184ZM879.783 187.64L873.342 195.289L873.381 195.322L873.421 195.355L879.783 187.64ZM897.983 225.44V235.44H908.933L907.942 224.535L897.983 225.44ZM863.543 225.44L853.728 227.355L855.306 235.44H863.543V225.44ZM853.183 207.52L846.969 215.355V215.355L853.183 207.52ZM797.463 215.08L804.462 222.222L804.498 222.187L804.534 222.151L797.463 215.08ZM778.983 253.72L769.141 251.951L769.121 252.063L769.103 252.176L778.983 253.72ZM786.823 296.84L779.452 303.597L779.499 303.649L779.547 303.7L786.823 296.84ZM853.463 282.28V272.28H847.5L844.665 277.527L853.463 282.28ZM887.903 282.28L896.973 286.491L903.571 272.28H887.903V282.28ZM855.983 319.8L861.504 328.138L861.517 328.129L861.53 328.121L855.983 319.8ZM761.623 317L754.611 324.129L754.641 324.159L754.671 324.188L761.623 317ZM756.071 255.458C758.643 240.885 763.731 228.38 771.203 217.752L754.843 206.248C745.516 219.514 739.404 234.822 736.375 251.982L756.071 255.458ZM771.186 217.777C778.907 206.867 788.268 198.623 799.293 192.863L790.033 175.137C776.045 182.443 764.313 192.867 754.86 206.223L771.186 217.777ZM799.24 192.891C810.47 187.111 822.614 184.2 835.823 184.2V164.2C819.539 164.2 804.243 167.822 790.087 175.109L799.24 192.891ZM835.823 184.2C852.943 184.2 865.04 188.298 873.342 195.289L886.224 179.991C873.246 169.062 856.036 164.2 835.823 164.2V184.2ZM873.421 195.355C881.605 202.103 886.722 212.018 888.024 226.345L907.942 224.535C906.258 206.008 899.242 190.724 886.145 179.925L873.421 195.355ZM897.983 215.44H863.543V235.44H897.983V215.44ZM873.358 223.525C871.471 213.853 866.919 205.651 859.397 199.685L846.969 215.355C850.274 217.976 852.629 221.721 853.728 227.355L873.358 223.525ZM859.397 199.685C851.684 193.568 841.865 191.08 831.063 191.08V211.08C838.928 211.08 843.855 212.885 846.969 215.355L859.397 199.685ZM831.063 191.08C815.314 191.08 801.579 196.822 790.392 208.009L804.534 222.151C812.014 214.672 820.679 211.08 831.063 211.08V191.08ZM790.464 207.938C779.269 218.909 772.388 233.889 769.141 251.951L788.825 255.489C791.552 240.324 796.991 229.544 804.462 222.222L790.464 207.938ZM769.103 252.176C768.132 258.389 767.583 263.813 767.583 268.28H787.583C787.583 265.28 787.967 260.998 788.863 255.264L769.103 252.176ZM767.583 268.28C767.583 282.21 771.082 294.467 779.452 303.597L794.195 290.083C790.244 285.773 787.583 278.99 787.583 268.28H767.583ZM779.547 303.7C788.011 312.677 799.485 316.64 812.583 316.64V296.64C803.655 296.64 797.955 294.069 794.099 289.98L779.547 303.7ZM812.583 316.64C823.324 316.64 833.181 314.266 841.782 309.14C850.384 304.015 857.159 296.477 862.261 287.033L844.665 277.527C840.994 284.323 836.569 288.965 831.544 291.96C826.519 294.954 820.322 296.64 812.583 296.64V316.64ZM853.463 292.28H887.903V272.28H853.463V292.28ZM878.833 278.069C872.305 292.129 862.863 303.195 850.436 311.479L861.53 328.121C877.104 317.738 888.941 303.791 896.973 286.491L878.833 278.069ZM850.462 311.462C838.455 319.413 824.366 323.52 807.823 323.52V343.52C827.867 343.52 845.885 338.48 861.504 328.138L850.462 311.462ZM807.823 323.52C790.385 323.52 777.695 318.633 768.575 309.812L754.671 324.188C768.324 337.394 786.434 343.52 807.823 343.52V323.52ZM768.635 309.871C759.522 300.906 754.543 288.553 754.543 271.64H734.543C734.543 292.807 740.951 310.694 754.611 324.129L768.635 309.871ZM754.543 271.64C754.543 266.5 755.04 261.126 756.062 255.509L736.384 251.931C735.166 258.634 734.543 265.207 734.543 271.64H754.543ZM955.834 288.16L945.987 286.417L945.958 286.581L945.934 286.746L955.834 288.16ZM958.914 301.88L952.817 309.806L953.015 309.959L953.222 310.102L958.914 301.88ZM990.554 304.4L1000.4 306.161L1002.5 294.4H990.554V304.4ZM985.794 331V341H994.163L995.637 332.762L985.794 331ZM932.314 323.72L926.206 331.638L926.278 331.693L926.351 331.747L932.314 323.72ZM923.634 288.16L933.44 290.121L933.461 290.012L933.481 289.903L923.634 288.16ZM938.754 202.76L948.601 204.503L950.68 192.76H938.754V202.76ZM920.554 202.76L910.699 201.064L908.686 212.76H920.554V202.76ZM925.034 176.72V166.72H916.607L915.179 175.024L925.034 176.72ZM943.514 176.72V186.72H951.914L953.364 178.446L943.514 176.72ZM950.234 138.36V128.36H941.833L940.384 136.634L950.234 138.36ZM982.434 138.36L992.284 140.086L994.338 128.36H982.434V138.36ZM975.714 176.72L965.864 174.994L963.81 186.72H975.714V176.72ZM1012.95 176.72L1022.81 178.416L1024.82 166.72H1012.95V176.72ZM1008.47 202.76V212.76H1016.9L1018.33 204.456L1008.47 202.76ZM970.954 202.76V192.76H962.569L961.107 201.017L970.954 202.76ZM945.934 286.746C945.59 289.155 945.274 291.598 945.274 293.2H965.274C965.274 293.377 965.265 293.417 965.279 293.232C965.291 293.075 965.314 292.832 965.353 292.484C965.43 291.788 965.554 290.828 965.733 289.574L945.934 286.746ZM945.274 293.2C945.274 299.271 947.261 305.533 952.817 309.806L965.011 293.954C965.083 294.009 965.176 294.097 965.265 294.213C965.352 294.327 965.394 294.416 965.406 294.443C965.423 294.485 965.274 294.152 965.274 293.2H945.274ZM953.222 310.102C958.256 313.587 964.873 314.4 970.954 314.4V294.4C968.611 294.4 966.932 294.221 965.792 293.982C964.618 293.736 964.383 293.504 964.606 293.658L953.222 310.102ZM970.954 314.4H990.554V294.4H970.954V314.4ZM980.71 302.639L975.95 329.238L995.637 332.762L1000.4 306.161L980.71 302.639ZM985.794 321H960.594V341H985.794V321ZM960.594 321C949.378 321 942.403 318.758 938.277 315.693L926.351 331.747C935.291 338.389 947.17 341 960.594 341V321ZM938.422 315.802C935.069 313.216 932.514 308.697 932.514 299.92H912.514C912.514 312.797 916.492 324.144 926.206 331.638L938.422 315.802ZM932.514 299.92C932.514 296.421 932.832 293.16 933.44 290.121L913.828 286.199C912.942 290.626 912.514 295.206 912.514 299.92H932.514ZM933.481 289.903L948.601 204.503L928.907 201.017L913.787 286.417L933.481 289.903ZM938.754 192.76H920.554V212.76H938.754V192.76ZM930.409 204.456L934.889 178.416L915.179 175.024L910.699 201.064L930.409 204.456ZM925.034 186.72H943.514V166.72H925.034V186.72ZM953.364 178.446L960.084 140.086L940.384 136.634L933.664 174.994L953.364 178.446ZM950.234 148.36H982.434V128.36H950.234V148.36ZM972.584 136.634L965.864 174.994L985.564 178.446L992.284 140.086L972.584 136.634ZM975.714 186.72H1012.95V166.72H975.714V186.72ZM1003.1 175.024L998.619 201.064L1018.33 204.456L1022.81 178.416L1003.1 175.024ZM1008.47 192.76H970.954V212.76H1008.47V192.76ZM961.107 201.017L945.987 286.417L965.681 289.903L980.801 204.503L961.107 201.017ZM1048.25 325.4L1043.45 334.173L1048.25 325.4ZM1025.01 302.44L1016.24 307.24L1016.28 307.303L1016.31 307.366L1025.01 302.44ZM1028.93 220.96L1020.25 215.999L1020.23 216.041L1020.2 216.084L1028.93 220.96ZM1062.53 186.8L1057.49 178.166L1057.46 178.181L1057.44 178.195L1062.53 186.8ZM1145.13 182.6L1140.28 191.342L1140.34 191.376L1140.4 191.41L1145.13 182.6ZM1168.65 205.56L1159.95 210.486L1160.01 210.584L1160.06 210.681L1168.65 205.56ZM1164.73 287.04L1173.37 292.086L1164.73 287.04ZM1130.57 321.2L1135.53 329.882L1135.58 329.858L1135.62 329.834L1130.57 321.2ZM1115.73 297.68L1121.36 305.946L1121.38 305.933L1121.4 305.92L1115.73 297.68ZM1136.73 273.6L1145.64 278.139L1145.66 278.106L1145.68 278.072L1136.73 273.6ZM1133.37 211.72L1126.39 218.882L1126.44 218.929L1126.49 218.975L1133.37 211.72ZM1076.81 210.32L1082.61 218.47L1082.63 218.457L1082.64 218.445L1076.81 210.32ZM1056.93 234.68L1047.89 230.406L1047.88 230.442L1047.86 230.479L1056.93 234.68ZM1060.01 296.28L1052.85 303.254L1052.89 303.303L1052.94 303.351L1060.01 296.28ZM1082.69 323.52C1071.04 323.52 1061.26 321.116 1053.05 316.627L1043.45 334.173C1055.04 340.511 1068.22 343.52 1082.69 343.52V323.52ZM1053.05 316.627C1044.81 312.115 1038.41 305.801 1033.72 297.514L1016.31 307.366C1022.82 318.866 1031.91 327.858 1043.45 334.173L1053.05 316.627ZM1033.79 297.64C1029.27 289.395 1026.89 279.79 1026.89 268.56H1006.89C1006.89 282.717 1009.93 295.698 1016.24 307.24L1033.79 297.64ZM1026.89 268.56C1026.89 252.811 1030.52 238.637 1037.66 225.836L1020.2 216.084C1011.3 232.03 1006.89 249.589 1006.89 268.56H1026.89ZM1037.62 225.921C1044.97 213.046 1054.94 202.918 1067.63 195.405L1057.44 178.195C1041.75 187.482 1029.32 200.127 1020.25 215.999L1037.62 225.921ZM1067.58 195.434C1080.34 187.977 1094.54 184.2 1110.41 184.2V164.2C1091.19 164.2 1073.48 168.823 1057.49 178.166L1067.58 195.434ZM1110.41 184.2C1122.01 184.2 1131.87 186.672 1140.28 191.342L1149.99 173.858C1138.24 167.328 1124.95 164.2 1110.41 164.2V184.2ZM1140.4 191.41C1148.83 195.936 1155.29 202.248 1159.95 210.486L1177.36 200.634C1170.82 189.086 1161.6 180.091 1149.86 173.79L1140.4 191.41ZM1160.06 210.681C1164.8 218.632 1167.33 228.106 1167.33 239.44H1187.33C1187.33 225.014 1184.08 211.901 1177.24 200.439L1160.06 210.681ZM1167.33 239.44C1167.33 255.106 1163.57 269.219 1156.1 281.994L1173.37 292.086C1182.7 276.114 1187.33 258.494 1187.33 239.44H1167.33ZM1156.1 281.994C1148.57 294.883 1138.42 305.034 1125.53 312.566L1135.62 329.834C1151.48 320.566 1164.1 307.944 1173.37 292.086L1156.1 281.994ZM1125.61 312.518C1112.84 319.815 1098.61 323.52 1082.69 323.52V343.52C1101.87 343.52 1119.56 339.011 1135.53 329.882L1125.61 312.518ZM1086.61 316.64C1099.26 316.64 1110.92 313.052 1121.36 305.946L1110.11 289.414C1103 294.255 1095.25 296.64 1086.61 296.64V316.64ZM1121.4 305.92C1131.76 298.796 1139.86 289.485 1145.64 278.139L1127.82 269.061C1123.52 277.502 1117.62 284.244 1110.07 289.44L1121.4 305.92ZM1145.68 278.072C1151.42 266.589 1154.29 254.322 1154.29 241.4H1134.29C1134.29 251.251 1132.13 260.451 1127.79 269.128L1145.68 278.072ZM1154.29 241.4C1154.29 226.598 1150.05 213.759 1140.26 204.465L1126.49 218.975C1131.25 223.494 1134.29 230.442 1134.29 241.4H1154.29ZM1140.35 204.558C1131.04 195.484 1119.31 191.08 1105.93 191.08V211.08C1114.58 211.08 1121.15 213.769 1126.39 218.882L1140.35 204.558ZM1105.93 191.08C1093.07 191.08 1081.31 194.784 1070.98 202.195L1082.64 218.445C1089.49 213.536 1097.14 211.08 1105.93 211.08V191.08ZM1071.02 202.17C1061.08 209.235 1053.4 218.752 1047.89 230.406L1065.97 238.954C1070.17 230.074 1075.74 223.352 1082.61 218.47L1071.02 202.17ZM1047.86 230.479C1042.56 241.931 1039.93 254.198 1039.93 267.16H1059.93C1059.93 256.975 1061.98 247.589 1066.01 238.881L1047.86 230.479ZM1039.93 267.16C1039.93 281.466 1043.82 293.973 1052.85 303.254L1067.18 289.306C1062.77 284.774 1059.93 277.868 1059.93 267.16H1039.93ZM1052.94 303.351C1061.94 312.345 1073.45 316.64 1086.61 316.64V296.64C1078.12 296.64 1071.9 294.028 1067.08 289.209L1052.94 303.351ZM1248.09 203.88L1238.24 202.154L1256.36 209.503L1248.09 203.88ZM1270.49 182.04L1265.37 173.449L1265.33 173.473L1265.29 173.498L1270.49 182.04ZM1299.61 174.2L1309.45 175.952L1311.54 164.2H1299.61V174.2ZM1293.73 207.24V217.24H1302.11L1303.57 208.992L1293.73 207.24ZM1255.93 216.48L1262.29 224.194L1255.93 216.48ZM1240.25 248.4L1230.44 246.462L1230.42 246.563L1230.4 246.664L1240.25 248.4ZM1225.69 331V341H1234.08L1235.54 332.736L1225.69 331ZM1193.77 331L1183.92 329.266L1181.85 341H1193.77V331ZM1220.93 176.72V166.72H1212.53L1211.08 174.986L1220.93 176.72ZM1252.85 176.72L1262.7 178.446L1264.75 166.72H1252.85V176.72ZM1256.36 209.503C1262 201.205 1268.46 194.98 1275.69 190.582L1265.29 173.498C1255.34 179.554 1246.87 187.888 1239.82 198.257L1256.36 209.503ZM1275.61 190.631C1282.77 186.366 1290.69 184.2 1299.61 184.2V164.2C1287.25 164.2 1275.76 167.261 1265.37 173.449L1275.61 190.631ZM1289.76 172.448L1283.88 205.488L1303.57 208.992L1309.45 175.952L1289.76 172.448ZM1293.73 197.24H1285.61V217.24H1293.73V197.24ZM1285.61 197.24C1271.61 197.24 1259.26 200.763 1249.56 208.766L1262.29 224.194C1267.52 219.877 1274.96 217.24 1285.61 217.24V197.24ZM1249.56 208.766C1239.53 217.045 1233.62 230.335 1230.44 246.462L1250.06 250.338C1252.85 236.225 1257.39 228.235 1262.29 224.194L1249.56 208.766ZM1230.4 246.664L1215.84 329.264L1235.54 332.736L1250.1 250.136L1230.4 246.664ZM1225.69 321H1193.77V341H1225.69V321ZM1203.62 332.734L1230.78 178.454L1211.08 174.986L1183.92 329.266L1203.62 332.734ZM1220.93 186.72H1252.85V166.72H1220.93V186.72ZM1243 174.994L1238.24 202.154L1257.94 205.606L1262.7 178.446L1243 174.994Z" fill="url(#paint0_linear_11_6)" mask="url(#path-1-outside-1_11_6)"/>
</g>
<defs>
<filter id="filter0_d_11_6" x="49.0509" y="100.8" width="1265.16" height="318.16" filterUnits="userSpaceOnUse" color-interpolation-filters="sRGB">
<feFlood flood-opacity="0" result="BackgroundImageFix"/>
<feColorMatrix in="SourceAlpha" type="matrix" values="0 0 0 0 0 0 0 0 0 0 0 0 0 0 0 0 0 0 127 0" result="hardAlpha"/>
<feOffset/>
<feGaussianBlur stdDeviation="7.3"/>
<feColorMatrix type="matrix" values="0 0 0 0 0.57125 0 0 0 0 1 0 0 0 0 0.5625 0 0 0 1 0"/>
<feBlend mode="normal" in2="BackgroundImageFix" result="effect1_dropShadow_11_6"/>
<feBlend mode="normal" in="SourceGraphic" in2="effect1_dropShadow_11_6" result="shape"/>
</filter>
<linearGradient id="paint0_linear_11_6" x1="57" y1="233" x2="1295" y2="233" gradientUnits="userSpaceOnUse">
<stop stop-color="#92FF8F"/>
<stop offset="1" stop-color="#FFF8E8"/>
</linearGradient>
</defs>
</svg>
