<svg width="1026" height="300" viewBox="0 0 1026 228" fill="none" xmlns="http://www.w3.org/2000/svg">
<g filter="url(#filter0_d_13_2)">
<mask id="path-1-outside-1_13_2" maskUnits="userSpaceOnUse" x="2" y="5" width="1021" height="218" fill="black">
<rect fill="white" x="2" y="5" width="1021" height="218"/>
<path d="M94.9067 112.84L163.787 210H122.067L62.1467 122.92L46.7467 210H14.8267L49.2667 15.4H81.1867L65.5067 104.16L156.787 15.4H196.827L94.9067 112.84ZM248.854 212.52C238.214 212.52 228.508 210.747 219.734 207.2C210.961 203.467 204.054 198.333 199.014 191.8C193.974 185.08 191.454 177.427 191.454 168.84C191.454 167.347 191.641 165.293 192.014 162.68H223.094C222.348 169.773 224.494 175.653 229.534 180.32C234.574 184.987 241.668 187.32 250.814 187.32C259.774 187.32 267.148 185.733 272.934 182.56C278.721 179.387 281.614 174.72 281.614 168.56C281.614 163.333 279.188 159.133 274.334 155.96C269.668 152.787 262.108 149.24 251.654 145.32C241.761 141.4 233.734 137.76 227.574 134.4C221.414 131.04 216.094 126.467 211.614 120.68C207.134 114.707 204.894 107.333 204.894 98.56C204.894 89.6 207.414 81.76 212.454 75.04C217.681 68.1333 224.868 62.8133 234.014 59.08C243.348 55.16 253.988 53.2 265.934 53.2C276.761 53.2 286.374 55.0667 294.774 58.8C303.361 62.3467 309.988 67.48 314.654 74.2C319.508 80.7333 321.934 88.2933 321.934 96.88C321.934 99.4933 321.841 101.453 321.654 102.76H291.414C292.161 95.48 290.014 89.6 284.974 85.12C280.121 80.64 273.121 78.4 263.974 78.4C255.948 78.4 249.414 80.08 244.374 83.44C239.521 86.8 237.094 91.3733 237.094 97.16C237.094 102.947 239.614 107.613 244.654 111.16C249.694 114.52 257.441 118.253 267.894 122.36C277.414 126.093 285.161 129.64 291.134 133C297.108 136.36 302.241 140.84 306.534 146.44C310.828 152.04 312.974 159.04 312.974 167.44C312.974 176.587 310.174 184.613 304.574 191.52C299.161 198.24 291.601 203.467 281.894 207.2C272.188 210.747 261.174 212.52 248.854 212.52ZM409.065 212.52C395.998 212.52 384.518 209.813 374.625 204.4C364.731 198.987 356.985 191.333 351.385 181.44C345.971 171.547 343.265 160.253 343.265 147.56C343.265 130.2 347.278 114.333 355.305 99.96C363.518 85.5867 374.718 74.2 388.905 65.8C403.278 57.4 419.238 53.2 436.785 53.2C449.851 53.2 461.425 56 471.505 61.6C481.585 67.0133 489.425 74.6667 495.025 84.56C500.811 94.2667 503.705 105.56 503.705 118.44C503.705 135.8 499.505 151.667 491.105 166.04C482.705 180.413 471.318 191.8 456.945 200.2C442.571 208.413 426.611 212.52 409.065 212.52ZM412.985 185.64C423.625 185.64 433.331 182.653 442.105 176.68C451.065 170.52 458.065 162.493 463.105 152.6C468.145 142.52 470.665 131.787 470.665 120.4C470.665 107.52 467.025 97.6267 459.745 90.72C452.465 83.6267 443.318 80.08 432.305 80.08C421.478 80.08 411.771 83.16 403.185 89.32C394.785 95.2933 388.158 103.413 383.305 113.68C378.638 123.76 376.305 134.587 376.305 146.16C376.305 158.667 379.665 168.373 386.385 175.28C393.291 182.187 402.158 185.64 412.985 185.64ZM574.459 82.88C580.806 73.5467 588.273 66.2667 596.859 61.04C605.633 55.8133 615.339 53.2 625.979 53.2L620.099 86.24H611.979C599.659 86.24 589.766 89.32 582.299 95.48C574.833 101.64 569.606 112.28 566.619 127.4L552.059 210H520.139L547.299 55.72H579.219L574.459 82.88ZM672.4 167.16C672.027 169.773 671.84 171.453 671.84 172.2C671.84 176.12 673.053 179.013 675.48 180.88C677.907 182.56 681.92 183.4 687.52 183.4H707.12L702.36 210H677.16C664.84 210 655.413 207.573 648.88 202.72C642.347 197.68 639.08 189.747 639.08 178.92C639.08 174.813 639.453 170.893 640.2 167.16L655.32 81.76H637.12L641.6 55.72H660.08L666.8 17.36H699L692.28 55.72H729.52L725.04 81.76H687.52L672.4 167.16ZM825.86 53.2C845.087 53.2 860.393 58.6133 871.78 69.44C883.353 80.2667 889.14 94.8267 889.14 113.12C889.14 117.413 888.673 122.547 887.74 128.52C886.993 132.627 885.687 137.667 883.82 143.64H765.94C765.753 144.947 765.66 146.907 765.66 149.52C765.66 160.533 769.02 169.307 775.74 175.84C782.647 182.373 791.607 185.64 802.62 185.64C819.98 185.64 833.327 178.453 842.66 164.08H877.1C870.007 178.267 859.553 189.933 845.74 199.08C831.927 208.04 815.967 212.52 797.86 212.52C784.98 212.52 773.687 210 763.98 204.96C754.273 199.92 746.713 192.733 741.3 183.4C735.887 173.88 733.18 162.773 733.18 150.08C733.18 144.667 733.74 138.88 734.86 132.72C737.66 116.853 743.353 102.947 751.94 91C760.527 78.8667 771.167 69.5333 783.86 63C796.74 56.4667 810.74 53.2 825.86 53.2ZM855.82 120.68C856.193 117.32 856.38 114.893 856.38 113.4C856.38 103.133 852.927 95.0133 846.02 89.04C839.3 83.0667 830.527 80.08 819.7 80.08C808.313 80.08 798.047 83.72 788.9 91C779.753 98.28 773.5 108.173 770.14 120.68H855.82ZM958.912 82.88C965.259 73.5467 972.726 66.2667 981.312 61.04C990.086 55.8133 999.792 53.2 1010.43 53.2L1004.55 86.24H996.432C984.112 86.24 974.219 89.32 966.752 95.48C959.286 101.64 954.059 112.28 951.072 127.4L936.512 210H904.592L931.752 55.72H963.672L958.912 82.88Z"/>
</mask>
<path d="M94.9067 112.84L87.9963 105.612L81.7548 111.579L86.7488 118.623L94.9067 112.84ZM163.787 210V220H183.134L171.945 204.217L163.787 210ZM122.067 210L113.829 215.669L116.809 220H122.067V210ZM62.1467 122.92L70.3848 117.251L56.5498 97.1453L52.2995 121.179L62.1467 122.92ZM46.7467 210V220H55.1334L56.5939 211.741L46.7467 210ZM14.8267 210L4.97974 208.257L2.90154 220H14.8267V210ZM49.2667 15.4V5.39999H40.8811L39.4197 13.6573L49.2667 15.4ZM81.1867 15.4L91.0342 17.1396L93.1081 5.39999H81.1867V15.4ZM65.5067 104.16L55.6592 102.42L50.2706 132.924L72.4781 111.329L65.5067 104.16ZM156.787 15.4V5.39999H152.726L149.815 8.23065L156.787 15.4ZM196.827 15.4L203.737 22.6281L221.757 5.39999H196.827V15.4ZM86.7488 118.623L155.629 215.783L171.945 204.217L103.065 107.057L86.7488 118.623ZM163.787 200H122.067V220H163.787V200ZM130.305 204.331L70.3848 117.251L53.9086 128.589L113.829 215.669L130.305 204.331ZM52.2995 121.179L36.8995 208.259L56.5939 211.741L71.9939 124.661L52.2995 121.179ZM46.7467 200H14.8267V220H46.7467V200ZM24.6737 211.743L59.1137 17.1427L39.4197 13.6573L4.97974 208.257L24.6737 211.743ZM49.2667 25.4H81.1867V5.39999H49.2667V25.4ZM71.3392 13.6604L55.6592 102.42L75.3542 105.9L91.0342 17.1396L71.3392 13.6604ZM72.4781 111.329L163.758 22.5693L149.815 8.23065L58.5353 96.9907L72.4781 111.329ZM156.787 25.4H196.827V5.39999H156.787V25.4ZM189.916 8.17184L87.9963 105.612L101.817 120.068L203.737 22.6281L189.916 8.17184ZM219.734 207.2L215.819 216.402L215.902 216.437L215.986 216.471L219.734 207.2ZM199.014 191.8L191.014 197.8L191.055 197.854L191.096 197.908L199.014 191.8ZM192.014 162.68V152.68H183.341L182.115 161.266L192.014 162.68ZM223.094 162.68L233.039 163.727L234.202 152.68H223.094V162.68ZM229.534 180.32L222.74 187.658L222.74 187.658L229.534 180.32ZM272.934 182.56L268.126 173.792L268.126 173.792L272.934 182.56ZM274.334 155.96L268.711 164.229L268.786 164.28L268.862 164.33L274.334 155.96ZM251.654 145.32L247.971 154.617L248.056 154.651L248.143 154.683L251.654 145.32ZM227.574 134.4L222.786 143.179L222.786 143.179L227.574 134.4ZM211.614 120.68L203.614 126.68L203.66 126.741L203.707 126.802L211.614 120.68ZM212.454 75.04L204.48 69.0056L204.467 69.0228L204.454 69.04L212.454 75.04ZM234.014 59.08L237.793 68.3385L237.84 68.3194L237.887 68.2998L234.014 59.08ZM294.774 58.8L290.713 67.9381L290.834 67.992L290.957 68.0426L294.774 58.8ZM314.654 74.2L306.441 79.904L306.532 80.0351L306.627 80.1632L314.654 74.2ZM321.654 102.76V112.76H330.327L331.554 104.174L321.654 102.76ZM291.414 102.76L281.466 101.74L280.336 112.76H291.414V102.76ZM284.974 85.12L278.191 92.468L278.26 92.5317L278.331 92.5941L284.974 85.12ZM244.374 83.44L238.827 75.1195L238.754 75.1681L238.682 75.2181L244.374 83.44ZM244.654 111.16L238.899 119.338L239.002 119.411L239.107 119.48L244.654 111.16ZM267.894 122.36L264.238 131.668L264.243 131.67L267.894 122.36ZM291.134 133L286.232 141.716L286.232 141.716L291.134 133ZM306.534 146.44L314.47 140.356L314.47 140.356L306.534 146.44ZM304.574 191.52L296.807 185.222L296.797 185.234L296.787 185.247L304.574 191.52ZM281.894 207.2L285.326 216.593L285.405 216.564L285.484 216.533L281.894 207.2ZM248.854 202.52C239.34 202.52 230.925 200.938 223.482 197.929L215.986 216.471C226.09 220.555 237.089 222.52 248.854 222.52V202.52ZM223.65 197.998C216.206 194.831 210.772 190.67 206.932 185.692L191.096 197.908C197.336 205.997 205.716 212.103 215.819 216.402L223.65 197.998ZM207.014 185.8C203.303 180.852 201.454 175.315 201.454 168.84H181.454C181.454 179.539 184.645 189.308 191.014 197.8L207.014 185.8ZM201.454 168.84C201.454 168.047 201.565 166.536 201.914 164.094L182.115 161.266C181.717 164.051 181.454 166.647 181.454 168.84H201.454ZM192.014 172.68H223.094V152.68H192.014V172.68ZM213.149 161.633C212.087 171.72 215.285 180.754 222.74 187.658L236.328 172.982C233.704 170.552 232.608 167.826 233.039 163.727L213.149 161.633ZM222.74 187.658C230.172 194.539 240.002 197.32 250.814 197.32V177.32C243.333 177.32 238.977 175.435 236.328 172.982L222.74 187.658ZM250.814 197.32C260.88 197.32 270.049 195.547 277.743 191.328L268.126 173.792C264.246 175.919 258.668 177.32 250.814 177.32V197.32ZM277.743 191.328C281.842 189.08 285.421 186.017 287.943 181.949C290.487 177.846 291.614 173.269 291.614 168.56H271.614C271.614 170.011 271.295 170.847 270.945 171.411C270.574 172.01 269.813 172.867 268.126 173.792L277.743 191.328ZM291.614 168.56C291.614 159.544 287.12 152.372 279.807 147.59L268.862 164.33C271.255 165.895 271.614 167.123 271.614 168.56H291.614ZM279.957 147.691C274.268 143.822 265.788 139.94 255.165 135.957L248.143 154.683C258.427 158.54 265.067 161.751 268.711 164.229L279.957 147.691ZM255.338 136.023C245.651 132.185 238.033 128.714 232.363 125.621L222.786 143.179C229.435 146.806 237.871 150.615 247.971 154.617L255.338 136.023ZM232.363 125.621C227.467 122.95 223.194 119.301 219.521 114.558L203.707 126.802C208.995 133.632 215.362 139.13 222.786 143.179L232.363 125.621ZM219.614 114.68C216.649 110.727 214.894 105.562 214.894 98.56H194.894C194.894 109.105 197.619 118.686 203.614 126.68L219.614 114.68ZM214.894 98.56C214.894 91.6101 216.802 85.9101 220.454 81.04L204.454 69.04C198.027 77.6099 194.894 87.5898 194.894 98.56H214.894ZM220.428 81.0744C224.426 75.7917 230.071 71.4905 237.793 68.3385L230.235 49.8215C219.664 54.1362 210.936 60.475 204.48 69.0056L220.428 81.0744ZM237.887 68.2998C245.794 64.9788 255.082 63.2 265.934 63.2V43.2C252.893 43.2 240.901 45.3412 230.142 49.8602L237.887 68.2998ZM265.934 63.2C275.607 63.2 283.798 64.865 290.713 67.9381L298.836 49.6619C288.95 45.2683 277.914 43.2 265.934 43.2V63.2ZM290.957 68.0426C298.016 70.9584 303.012 74.9674 306.441 79.904L322.868 68.496C316.963 59.9926 308.706 53.7349 298.592 49.5574L290.957 68.0426ZM306.627 80.1632C310.126 84.8737 311.934 90.3153 311.934 96.88H331.934C331.934 86.2714 328.889 76.5929 322.682 68.2368L306.627 80.1632ZM311.934 96.88C311.934 99.3838 311.838 100.766 311.755 101.346L331.554 104.174C331.844 102.141 331.934 99.6029 331.934 96.88H311.934ZM321.654 92.76H291.414V112.76H321.654V92.76ZM301.362 103.78C302.404 93.6205 299.29 84.4657 291.618 77.6459L278.331 92.5941C280.738 94.7343 281.918 97.3395 281.466 101.74L301.362 103.78ZM291.757 77.772C284.447 71.0247 274.661 68.4 263.974 68.4V88.4C271.581 88.4 275.794 90.2553 278.191 92.468L291.757 77.772ZM263.974 68.4C254.604 68.4 245.966 70.3603 238.827 75.1195L249.921 91.7605C252.863 89.7996 257.291 88.4 263.974 88.4V68.4ZM238.682 75.2181C231.196 80.401 227.094 88.0138 227.094 97.16H247.094C247.094 94.7328 247.846 93.1989 250.066 91.6619L238.682 75.2181ZM227.094 97.16C227.094 106.443 231.402 114.062 238.899 119.338L250.409 102.982C247.827 101.165 247.094 99.4507 247.094 97.16H227.094ZM239.107 119.48C245.045 123.439 253.581 127.481 264.238 131.668L271.551 113.052C261.301 109.026 254.344 105.601 250.201 102.839L239.107 119.48ZM264.243 131.67C273.52 135.308 280.805 138.663 286.232 141.716L296.037 124.284C289.517 120.617 281.308 116.879 271.545 113.05L264.243 131.67ZM286.232 141.716C290.991 144.393 295.103 147.965 298.598 152.524L314.47 140.356C309.379 133.715 303.224 128.327 296.037 124.284L286.232 141.716ZM298.598 152.524C301.311 156.063 302.974 160.807 302.974 167.44H322.974C322.974 157.273 320.344 148.017 314.47 140.356L298.598 152.524ZM302.974 167.44C302.974 174.365 300.918 180.151 296.807 185.222L312.342 197.818C319.43 189.075 322.974 178.808 322.974 167.44H302.974ZM296.787 185.247C292.685 190.338 286.704 194.636 278.304 197.867L285.484 216.533C296.498 212.297 305.637 206.142 312.362 197.793L296.787 185.247ZM278.462 197.807C270.044 200.883 260.223 202.52 248.854 202.52V222.52C262.126 222.52 274.331 220.61 285.326 216.593L278.462 197.807ZM374.625 204.4L369.824 213.173L369.824 213.173L374.625 204.4ZM351.385 181.44L342.612 186.24L342.646 186.303L342.682 186.366L351.385 181.44ZM355.305 99.96L346.622 94.9986L346.598 95.0413L346.574 95.0843L355.305 99.96ZM388.905 65.8L383.859 57.1663L383.834 57.1807L383.81 57.1952L388.905 65.8ZM471.505 61.6L466.648 70.3416L466.71 70.3762L466.773 70.4099L471.505 61.6ZM495.025 84.56L486.322 89.486L486.377 89.5839L486.435 89.6806L495.025 84.56ZM491.105 166.04L499.738 171.086L499.738 171.086L491.105 166.04ZM456.945 200.2L461.906 208.882L461.948 208.858L461.99 208.834L456.945 200.2ZM442.105 176.68L447.732 184.946L447.751 184.933L447.77 184.92L442.105 176.68ZM463.105 152.6L472.015 157.139L472.032 157.106L472.049 157.072L463.105 152.6ZM459.745 90.72L452.766 97.8823L452.814 97.9288L452.862 97.9746L459.745 90.72ZM403.185 89.32L408.98 97.4695L408.997 97.4575L409.014 97.4454L403.185 89.32ZM383.305 113.68L374.264 109.406L374.247 109.442L374.23 109.479L383.305 113.68ZM386.385 175.28L379.217 182.254L379.265 182.303L379.313 182.351L386.385 175.28ZM409.065 202.52C397.407 202.52 387.628 200.116 379.425 195.627L369.824 213.173C381.408 219.511 394.588 222.52 409.065 222.52V202.52ZM379.425 195.627C371.179 191.115 364.778 184.801 360.087 176.514L342.682 186.366C349.191 197.866 358.284 206.858 369.824 213.173L379.425 195.627ZM360.157 176.64C355.646 168.395 353.265 158.79 353.265 147.56H333.265C333.265 161.717 336.296 174.698 342.612 186.24L360.157 176.64ZM353.265 147.56C353.265 131.81 356.887 117.637 364.035 104.836L346.574 95.0843C337.669 111.03 333.265 128.589 333.265 147.56H353.265ZM363.987 104.921C371.344 92.0464 381.311 81.9179 393.999 74.4047L383.81 57.1952C368.125 66.4821 355.692 79.1269 346.622 94.9986L363.987 104.921ZM393.95 74.4337C406.709 66.9774 420.912 63.2 436.785 63.2V43.2C417.564 43.2 399.847 47.8226 383.859 57.1663L393.95 74.4337ZM436.785 63.2C448.381 63.2 458.242 65.6717 466.648 70.3416L476.361 52.8584C464.607 46.3283 451.321 43.2 436.785 43.2V63.2ZM466.773 70.4099C475.201 74.9357 481.659 81.2476 486.322 89.486L503.727 79.634C497.19 68.0857 487.968 59.0909 476.236 52.79L466.773 70.4099ZM486.435 89.6806C491.175 97.6321 493.705 107.106 493.705 118.44H513.705C513.705 104.014 510.447 90.9013 503.614 79.4393L486.435 89.6806ZM493.705 118.44C493.705 134.106 489.937 148.219 482.471 160.994L499.738 171.086C509.072 155.114 513.705 137.494 513.705 118.44H493.705ZM482.471 160.994C474.938 173.883 464.788 184.034 451.899 191.566L461.99 208.834C477.848 199.566 490.471 186.944 499.738 171.086L482.471 160.994ZM451.983 191.518C439.212 198.815 424.979 202.52 409.065 202.52V222.52C428.243 222.52 445.93 218.011 461.906 208.882L451.983 191.518ZM412.985 195.64C425.627 195.64 437.295 192.052 447.732 184.946L436.477 168.414C429.367 173.255 421.622 175.64 412.985 175.64V195.64ZM447.77 184.92C458.133 177.796 466.235 168.485 472.015 157.139L454.194 148.061C449.894 156.502 443.996 163.244 436.439 168.44L447.77 184.92ZM472.049 157.072C477.791 145.589 480.665 133.322 480.665 120.4H460.665C460.665 130.251 458.499 139.451 454.16 148.128L472.049 157.072ZM480.665 120.4C480.665 105.598 476.424 92.7593 466.627 83.4654L452.862 97.9746C457.626 102.494 460.665 109.442 460.665 120.4H480.665ZM466.723 83.5577C457.411 74.4845 445.686 70.08 432.305 70.08V90.08C440.95 90.08 447.518 92.7689 452.766 97.8823L466.723 83.5577ZM432.305 70.08C419.441 70.08 407.685 73.784 397.355 81.1946L409.014 97.4454C415.857 92.536 423.514 90.08 432.305 90.08V70.08ZM397.389 81.1704C387.455 88.235 379.773 97.7523 374.264 109.406L392.345 117.954C396.543 109.074 402.114 102.352 408.98 97.4695L397.389 81.1704ZM374.23 109.479C368.928 120.931 366.305 133.198 366.305 146.16H386.305C386.305 135.975 388.348 126.589 392.379 117.881L374.23 109.479ZM366.305 146.16C366.305 160.466 370.187 172.973 379.217 182.254L393.552 168.306C389.142 163.774 386.305 156.868 386.305 146.16H366.305ZM379.313 182.351C388.307 191.345 399.821 195.64 412.985 195.64V175.64C404.495 175.64 398.275 173.028 393.456 168.209L379.313 182.351ZM574.459 82.88L564.609 81.1537L582.728 88.5031L574.459 82.88ZM596.859 61.04L591.741 52.449L591.7 52.4733L591.66 52.498L596.859 61.04ZM625.979 53.2L635.825 54.9521L637.916 43.2H625.979V53.2ZM620.099 86.24V96.24H628.477L629.945 87.9921L620.099 86.24ZM582.299 95.48L588.663 103.194L588.663 103.194L582.299 95.48ZM566.619 127.4L556.809 125.462L556.789 125.563L556.771 125.664L566.619 127.4ZM552.059 210V220H560.451L561.907 211.736L552.059 210ZM520.139 210L510.291 208.266L508.225 220H520.139V210ZM547.299 55.72V45.72H538.906L537.451 53.9862L547.299 55.72ZM579.219 55.72L589.069 57.4463L591.124 45.72H579.219V55.72ZM582.728 88.5031C588.371 80.2053 594.834 73.9797 602.059 69.582L591.66 52.498C581.711 58.5536 573.241 66.8881 566.19 77.2569L582.728 88.5031ZM601.977 69.631C609.136 65.3661 617.062 63.2 625.979 63.2V43.2C613.616 43.2 602.129 46.2606 591.741 52.449L601.977 69.631ZM616.134 51.4479L610.254 84.4879L629.945 87.9921L635.825 54.9521L616.134 51.4479ZM620.099 76.24H611.979V96.24H620.099V76.24ZM611.979 76.24C597.984 76.24 585.636 79.7632 575.935 87.7663L588.663 103.194C593.896 98.8767 601.335 96.24 611.979 96.24V76.24ZM575.935 87.7663C565.901 96.0449 559.994 109.335 556.809 125.462L576.43 129.338C579.217 115.225 583.764 107.235 588.663 103.194L575.935 87.7663ZM556.771 125.664L542.211 208.264L561.907 211.736L576.467 129.136L556.771 125.664ZM552.059 200H520.139V220H552.059V200ZM529.988 211.734L557.148 57.4538L537.451 53.9862L510.291 208.266L529.988 211.734ZM547.299 65.72H579.219V45.72H547.299V65.72ZM569.369 53.9937L564.609 81.1537L584.309 84.6063L589.069 57.4463L569.369 53.9937ZM672.4 167.16L662.553 165.417L662.524 165.581L662.501 165.746L672.4 167.16ZM675.48 180.88L669.383 188.806L669.582 188.959L669.788 189.102L675.48 180.88ZM707.12 183.4L716.964 185.161L719.068 173.4H707.12V183.4ZM702.36 210V220H710.73L712.204 211.761L702.36 210ZM648.88 202.72L642.772 210.638L642.844 210.693L642.917 210.747L648.88 202.72ZM640.2 167.16L650.006 169.121L650.028 169.012L650.047 168.903L640.2 167.16ZM655.32 81.76L665.167 83.5034L667.246 71.76H655.32V81.76ZM637.12 81.76L627.265 80.0645L625.253 91.76H637.12V81.76ZM641.6 55.72V45.72H633.174L631.745 54.0245L641.6 55.72ZM660.08 55.72V65.72H668.481L669.93 57.4455L660.08 55.72ZM666.8 17.36V7.35999H658.4L656.95 15.6344L666.8 17.36ZM699 17.36L708.85 19.0855L710.904 7.35999H699V17.36ZM692.28 55.72L682.43 53.9945L680.376 65.72H692.28V55.72ZM729.52 55.72L739.375 57.4155L741.388 45.72H729.52V55.72ZM725.04 81.76V91.76H733.467L734.895 83.4555L725.04 81.76ZM687.52 81.76V71.76H679.135L677.673 80.0166L687.52 81.76ZM662.501 165.746C662.156 168.155 661.84 170.598 661.84 172.2H681.84C681.84 172.377 681.831 172.417 681.846 172.232C681.858 172.075 681.88 171.832 681.919 171.484C681.996 170.788 682.121 169.828 682.3 168.574L662.501 165.746ZM661.84 172.2C661.84 178.271 663.827 184.533 669.383 188.806L681.577 172.954C681.649 173.009 681.743 173.097 681.831 173.213C681.919 173.327 681.961 173.416 681.972 173.443C681.99 173.485 681.84 173.152 681.84 172.2H661.84ZM669.788 189.102C674.822 192.587 681.439 193.4 687.52 193.4V173.4C685.177 173.4 683.498 173.221 682.359 172.982C681.185 172.736 680.949 172.504 681.172 172.658L669.788 189.102ZM687.52 193.4H707.12V173.4H687.52V193.4ZM697.277 181.639L692.517 208.239L712.204 211.761L716.964 185.161L697.277 181.639ZM702.36 200H677.16V220H702.36V200ZM677.16 200C665.944 200 658.97 197.758 654.843 194.693L642.917 210.747C651.857 217.389 663.736 220 677.16 220V200ZM654.988 194.802C651.636 192.216 649.08 187.697 649.08 178.92H629.08C629.08 191.797 633.058 203.144 642.772 210.638L654.988 194.802ZM649.08 178.92C649.08 175.421 649.398 172.16 650.006 169.121L630.394 165.199C629.509 169.626 629.08 174.206 629.08 178.92H649.08ZM650.047 168.903L665.167 83.5034L645.473 80.0166L630.353 165.417L650.047 168.903ZM655.32 71.76H637.12V91.76H655.32V71.76ZM646.975 83.4555L651.455 57.4155L631.745 54.0245L627.265 80.0645L646.975 83.4555ZM641.6 65.72H660.08V45.72H641.6V65.72ZM669.93 57.4455L676.65 19.0855L656.95 15.6344L650.23 53.9945L669.93 57.4455ZM666.8 27.36H699V7.35999H666.8V27.36ZM689.15 15.6344L682.43 53.9945L702.13 57.4455L708.85 19.0855L689.15 15.6344ZM692.28 65.72H729.52V45.72H692.28V65.72ZM719.665 54.0245L715.185 80.0645L734.895 83.4555L739.375 57.4155L719.665 54.0245ZM725.04 71.76H687.52V91.76H725.04V71.76ZM677.673 80.0166L662.553 165.417L682.247 168.903L697.367 83.5034L677.673 80.0166ZM871.78 69.44L864.889 76.687L864.919 76.715L864.948 76.7427L871.78 69.44ZM887.74 128.52L897.579 130.309L897.601 130.187L897.62 130.064L887.74 128.52ZM883.82 143.64V153.64H891.172L893.365 146.623L883.82 143.64ZM765.94 143.64V133.64H757.267L756.04 142.226L765.94 143.64ZM775.74 175.84L768.769 183.01L768.818 183.058L768.868 183.105L775.74 175.84ZM842.66 164.08V154.08H837.23L834.273 158.634L842.66 164.08ZM877.1 164.08L886.044 168.552L893.28 154.08H877.1V164.08ZM845.74 199.08L851.182 207.47L851.221 207.444L851.261 207.418L845.74 199.08ZM763.98 204.96L768.588 196.085L768.588 196.085L763.98 204.96ZM741.3 183.4L732.607 188.343L732.628 188.38L732.65 188.417L741.3 183.4ZM734.86 132.72L744.699 134.509L744.703 134.483L744.708 134.458L734.86 132.72ZM751.94 91L760.06 96.8364L760.081 96.8066L760.103 96.7767L751.94 91ZM783.86 63L779.336 54.0817L779.31 54.0951L779.283 54.1086L783.86 63ZM855.82 120.68V130.68H864.77L865.759 121.784L855.82 120.68ZM846.02 89.04L839.376 96.5141L839.427 96.5592L839.478 96.6036L846.02 89.04ZM770.14 120.68L760.482 118.085L757.099 130.68H770.14V120.68ZM825.86 63.2C843.127 63.2 855.758 68.0051 864.889 76.687L878.67 62.193C865.028 49.2216 847.046 43.2 825.86 43.2V63.2ZM864.948 76.7427C874.182 85.3812 879.14 97.1269 879.14 113.12H899.14C899.14 92.5264 892.524 75.1522 878.611 62.1373L864.948 76.7427ZM879.14 113.12C879.14 116.735 878.743 121.325 877.86 126.976L897.62 130.064C898.604 123.768 899.14 118.091 899.14 113.12H879.14ZM877.901 126.731C877.254 130.289 876.073 134.903 874.275 140.657L893.365 146.623C895.3 140.43 896.732 134.965 897.579 130.309L877.901 126.731ZM883.82 133.64H765.94V153.64H883.82V133.64ZM756.04 142.226C755.75 144.259 755.66 146.797 755.66 149.52H775.66C775.66 147.016 775.756 145.634 775.839 145.054L756.04 142.226ZM755.66 149.52C755.66 162.723 759.774 174.265 768.769 183.01L782.711 168.67C778.266 164.349 775.66 158.344 775.66 149.52H755.66ZM768.868 183.105C777.925 191.672 789.485 195.64 802.62 195.64V175.64C793.728 175.64 787.368 173.075 782.612 168.575L768.868 183.105ZM802.62 195.64C823.313 195.64 839.84 186.784 851.047 169.526L834.273 158.634C826.813 170.123 816.647 175.64 802.62 175.64V195.64ZM842.66 174.08H877.1V154.08H842.66V174.08ZM868.156 159.608C861.881 172.157 852.64 182.517 840.219 190.742L851.261 207.418C866.466 197.349 878.132 184.376 886.044 168.552L868.156 159.608ZM840.298 190.69C828.265 198.496 814.235 202.52 797.86 202.52V222.52C817.698 222.52 835.588 217.584 851.182 207.47L840.298 190.69ZM797.86 202.52C786.299 202.52 776.638 200.265 768.588 196.085L759.372 213.835C770.735 219.735 783.66 222.52 797.86 222.52V202.52ZM768.588 196.085C760.543 191.908 754.396 186.049 749.95 178.383L732.65 188.417C739.03 199.418 748.003 207.932 759.372 213.835L768.588 196.085ZM749.993 178.457C745.564 170.668 743.18 161.319 743.18 150.08H723.18C723.18 164.228 726.209 177.092 732.607 188.343L749.993 178.457ZM743.18 150.08C743.18 145.351 743.67 140.168 744.699 134.509L725.021 130.931C723.81 137.592 723.18 143.982 723.18 150.08H743.18ZM744.708 134.458C747.272 119.927 752.43 107.451 760.06 96.8364L743.82 85.1636C734.276 98.4418 728.048 113.78 725.012 130.982L744.708 134.458ZM760.103 96.7767C767.801 85.8987 777.231 77.6589 788.436 71.8913L779.283 54.1086C765.102 61.4078 753.252 71.8346 743.777 85.2233L760.103 96.7767ZM788.384 71.9183C799.795 66.1297 812.236 63.2 825.86 63.2V43.2C809.244 43.2 793.684 46.8037 779.336 54.0817L788.384 71.9183ZM865.759 121.784C866.135 118.397 866.38 115.493 866.38 113.4H846.38C846.38 114.293 846.251 116.243 845.881 119.576L865.759 121.784ZM866.38 113.4C866.38 100.633 861.952 89.5982 852.561 81.4764L839.478 96.6036C843.901 100.428 846.38 105.633 846.38 113.4H866.38ZM852.663 81.5659C843.755 73.6474 832.45 70.08 819.7 70.08V90.08C828.603 90.08 834.845 92.486 839.376 96.5141L852.663 81.5659ZM819.7 70.08C805.987 70.08 793.538 74.5277 782.672 83.1758L795.127 98.8242C802.555 92.9123 810.64 90.08 819.7 90.08V70.08ZM782.672 83.1758C771.672 91.9308 764.334 103.748 760.482 118.085L779.797 123.275C782.665 112.599 787.834 104.629 795.127 98.8242L782.672 83.1758ZM770.14 130.68H855.82V110.68H770.14V130.68ZM958.912 82.88L949.062 81.1537L967.182 88.5031L958.912 82.88ZM981.312 61.04L976.194 52.449L976.153 52.4733L976.113 52.498L981.312 61.04ZM1010.43 53.2L1020.28 54.9521L1022.37 43.2H1010.43V53.2ZM1004.55 86.24V96.24H1012.93L1014.4 87.9921L1004.55 86.24ZM966.752 95.48L973.116 103.194L973.116 103.194L966.752 95.48ZM951.072 127.4L941.262 125.462L941.242 125.563L941.224 125.664L951.072 127.4ZM936.512 210V220H944.904L946.361 211.736L936.512 210ZM904.592 210L894.744 208.266L892.678 220H904.592V210ZM931.752 55.72V45.72H923.359L921.904 53.9862L931.752 55.72ZM963.672 55.72L973.522 57.4463L975.577 45.72H963.672V55.72ZM967.182 88.5031C972.824 80.2053 979.287 73.9797 986.512 69.582L976.113 52.498C966.164 58.5536 957.694 66.8881 950.643 77.2569L967.182 88.5031ZM986.43 69.631C993.589 65.3661 1001.52 63.2 1010.43 63.2V43.2C998.069 43.2 986.582 46.2606 976.194 52.449L986.43 69.631ZM1000.59 51.4479L994.707 84.4879L1014.4 87.9921L1020.28 54.9521L1000.59 51.4479ZM1004.55 76.24H996.432V96.24H1004.55V76.24ZM996.432 76.24C982.437 76.24 970.089 79.7632 960.389 87.7663L973.116 103.194C978.349 98.8767 985.788 96.24 996.432 96.24V76.24ZM960.389 87.7663C950.354 96.0449 944.448 109.335 941.262 125.462L960.883 129.338C963.67 115.225 968.218 107.235 973.116 103.194L960.389 87.7663ZM941.224 125.664L926.664 208.264L946.361 211.736L960.921 129.136L941.224 125.664ZM936.512 200H904.592V220H936.512V200ZM914.441 211.734L941.601 57.4538L921.904 53.9862L894.744 208.266L914.441 211.734ZM931.752 65.72H963.672V45.72H931.752V65.72ZM953.822 53.9937L949.062 81.1537L968.762 84.6063L973.522 57.4463L953.822 53.9937Z" fill="url(#paint0_linear_13_2)" mask="url(#path-1-outside-1_13_2)"/>
</g>
<defs>
<filter id="filter0_d_13_2" x="0.22666" y="0.799963" width="1024.81" height="226.32" filterUnits="userSpaceOnUse" color-interpolation-filters="sRGB">
<feFlood flood-opacity="0" result="BackgroundImageFix"/>
<feColorMatrix in="SourceAlpha" type="matrix" values="0 0 0 0 0 0 0 0 0 0 0 0 0 0 0 0 0 0 127 0" result="hardAlpha"/>
<feOffset/>
<feGaussianBlur stdDeviation="7.3"/>
<feColorMatrix type="matrix" values="0 0 0 0 1 0 0 0 0 0.453333 0 0 0 0 0.145833 0 0 0 1 0"/>
<feBlend mode="normal" in2="BackgroundImageFix" result="effect1_dropShadow_13_2"/>
<feBlend mode="normal" in="SourceGraphic" in2="effect1_dropShadow_13_2" result="shape"/>
</filter>
<linearGradient id="paint0_linear_13_2" x1="8" y1="112" x2="1006" y2="112" gradientUnits="userSpaceOnUse">
<stop stop-color="#FFA471"/>
<stop offset="1" stop-color="#FFDECC"/>
</linearGradient>
</defs>
</svg>
