<svg width="650" height="300" viewBox="0 0 650 300" fill="none" xmlns="http://www.w3.org/2000/svg">
<mask id="path-1-outside-1_36_18" maskUnits="userSpaceOnUse" x="10" y="56" width="626" height="176" fill="black">
<rect fill="white" x="10" y="56" width="626" height="176"/>
<path d="M79.8664 150.6L129.066 220H99.2664L56.4664 157.8L45.4664 220H22.6664L47.2664 81H70.0664L58.8664 144.4L124.066 81H152.666L79.8664 150.6ZM189.829 221.8C182.229 221.8 175.296 220.533 169.029 218C162.762 215.333 157.829 211.667 154.229 207C150.629 202.2 148.829 196.733 148.829 190.6C148.829 189.533 148.962 188.067 149.229 186.2H171.429C170.896 191.267 172.429 195.467 176.029 198.8C179.629 202.133 184.696 203.8 191.229 203.8C197.629 203.8 202.896 202.667 207.029 200.4C211.162 198.133 213.229 194.8 213.229 190.4C213.229 186.667 211.496 183.667 208.029 181.4C204.696 179.133 199.296 176.6 191.829 173.8C184.762 171 179.029 168.4 174.629 166C170.229 163.6 166.429 160.333 163.229 156.2C160.029 151.933 158.429 146.667 158.429 140.4C158.429 134 160.229 128.4 163.829 123.6C167.562 118.667 172.696 114.867 179.229 112.2C185.896 109.4 193.496 108 202.029 108C209.762 108 216.629 109.333 222.629 112C228.762 114.533 233.496 118.2 236.829 123C240.296 127.667 242.029 133.067 242.029 139.2C242.029 141.067 241.962 142.467 241.829 143.4H220.229C220.762 138.2 219.229 134 215.629 130.8C212.162 127.6 207.162 126 200.629 126C194.896 126 190.229 127.2 186.629 129.6C183.162 132 181.429 135.267 181.429 139.4C181.429 143.533 183.229 146.867 186.829 149.4C190.429 151.8 195.962 154.467 203.429 157.4C210.229 160.067 215.762 162.6 220.029 165C224.296 167.4 227.962 170.6 231.029 174.6C234.096 178.6 235.629 183.6 235.629 189.6C235.629 196.133 233.629 201.867 229.629 206.8C225.762 211.6 220.362 215.333 213.429 218C206.496 220.533 198.629 221.8 189.829 221.8ZM375.265 109.8L355.865 220H333.065L335.265 207C330.865 211.533 325.532 215.133 319.265 217.8C313.132 220.333 306.798 221.6 300.265 221.6C288.665 221.6 279.398 218.467 272.465 212.2C265.532 205.933 262.065 197.067 262.065 185.6C262.065 182.533 262.398 178.867 263.065 174.6L274.465 109.8H297.065L286.265 171.2C285.732 174.933 285.465 177.6 285.465 179.2C285.465 186.533 287.465 192.133 291.465 196C295.598 199.867 301.265 201.8 308.465 201.8C316.865 201.8 323.998 199.333 329.865 194.4C335.732 189.333 339.598 182.067 341.465 172.6L352.465 109.8H375.265ZM419.548 95.2C415.948 95.2 413.014 94.0667 410.748 91.8C408.481 89.5333 407.348 86.6667 407.348 83.2C407.348 78.5333 409.081 74.5333 412.548 71.2C416.148 67.7333 420.214 66 424.748 66C428.348 66 431.214 67.1333 433.348 69.4C435.614 71.6667 436.748 74.5333 436.748 78C436.748 82.6667 435.014 86.7333 431.548 90.2C428.081 93.5333 424.081 95.2 419.548 95.2ZM428.148 109.8L408.748 220H385.948L405.348 109.8H428.148ZM470.682 189.4C470.415 191.267 470.282 192.467 470.282 193C470.282 195.8 471.149 197.867 472.882 199.2C474.615 200.4 477.482 201 481.482 201H495.482L492.082 220H474.082C465.282 220 458.549 218.267 453.882 214.8C449.215 211.2 446.882 205.533 446.882 197.8C446.882 194.867 447.149 192.067 447.682 189.4L458.482 128.4H445.482L448.682 109.8H461.882L466.682 82.4H489.682L484.882 109.8H511.482L508.282 128.4H481.482L470.682 189.4ZM580.296 108C594.029 108 604.963 111.867 613.096 119.6C621.363 127.333 625.496 137.733 625.496 150.8C625.496 153.867 625.163 157.533 624.496 161.8C623.963 164.733 623.029 168.333 621.696 172.6H537.496C537.363 173.533 537.296 174.933 537.296 176.8C537.296 184.667 539.696 190.933 544.496 195.6C549.429 200.267 555.829 202.6 563.696 202.6C576.096 202.6 585.629 197.467 592.296 187.2H616.896C611.829 197.333 604.363 205.667 594.496 212.2C584.629 218.6 573.229 221.8 560.296 221.8C551.096 221.8 543.029 220 536.096 216.4C529.163 212.8 523.763 207.667 519.896 201C516.029 194.2 514.096 186.267 514.096 177.2C514.096 173.333 514.496 169.2 515.296 164.8C517.296 153.467 521.363 143.533 527.496 135C533.629 126.333 541.229 119.667 550.296 115C559.496 110.333 569.496 108 580.296 108ZM601.696 156.2C601.963 153.8 602.096 152.067 602.096 151C602.096 143.667 599.629 137.867 594.696 133.6C589.896 129.333 583.629 127.2 575.896 127.2C567.763 127.2 560.429 129.8 553.896 135C547.363 140.2 542.896 147.267 540.496 156.2H601.696Z"/>
</mask>
<path d="M79.8664 150.6L72.956 143.372L66.7145 149.339L71.7085 156.383L79.8664 150.6ZM129.066 220V230H148.414L137.224 214.217L129.066 220ZM99.2664 220L91.0283 225.669L94.0087 230H99.2664V220ZM56.4664 157.8L64.7045 152.131L50.8695 132.025L46.6192 156.059L56.4664 157.8ZM45.4664 220V230H53.8531L55.3136 221.741L45.4664 220ZM22.6664 220L12.8194 218.257L10.7412 230H22.6664V220ZM47.2664 81V71H38.8808L37.4194 79.2573L47.2664 81ZM70.0664 81L79.9139 82.7396L81.9878 71H70.0664V81ZM58.8664 144.4L49.0189 142.66L43.6303 173.164L65.8378 151.569L58.8664 144.4ZM124.066 81V71H120.006L117.095 73.8307L124.066 81ZM152.666 81L159.577 88.2281L177.597 71H152.666V81ZM71.7085 156.383L120.908 225.783L137.224 214.217L88.0243 144.817L71.7085 156.383ZM129.066 210H99.2664V230H129.066V210ZM107.505 214.331L64.7045 152.131L48.2283 163.469L91.0283 225.669L107.505 214.331ZM46.6192 156.059L35.6192 218.259L55.3136 221.741L66.3136 159.541L46.6192 156.059ZM45.4664 210H22.6664V230H45.4664V210ZM32.5134 221.743L57.1134 82.7427L37.4194 79.2573L12.8194 218.257L32.5134 221.743ZM47.2664 91H70.0664V71H47.2664V91ZM60.2189 79.2604L49.0189 142.66L68.7139 146.14L79.9139 82.7396L60.2189 79.2604ZM65.8378 151.569L131.038 88.1693L117.095 73.8307L51.895 137.231L65.8378 151.569ZM124.066 91H152.666V71H124.066V91ZM145.756 73.7718L72.956 143.372L86.7768 157.828L159.577 88.2281L145.756 73.7718ZM169.029 218L165.113 227.202L165.197 227.237L165.281 227.271L169.029 218ZM154.229 207L146.229 213L146.27 213.054L146.311 213.108L154.229 207ZM149.229 186.2V176.2H140.556L139.329 184.786L149.229 186.2ZM171.429 186.2L181.374 187.247L182.537 176.2H171.429V186.2ZM176.029 198.8L169.235 206.138L169.235 206.138L176.029 198.8ZM207.029 200.4L202.221 191.632L202.221 191.632L207.029 200.4ZM208.029 181.4L202.406 189.669L202.481 189.72L202.556 189.77L208.029 181.4ZM191.829 173.8L188.145 183.097L188.231 183.131L188.318 183.163L191.829 173.8ZM174.629 166L169.84 174.779L169.84 174.779L174.629 166ZM163.229 156.2L155.229 162.2L155.275 162.261L155.322 162.322L163.229 156.2ZM163.829 123.6L155.855 117.566L155.842 117.583L155.829 117.6L163.829 123.6ZM179.229 112.2L183.008 121.458L183.055 121.439L183.101 121.42L179.229 112.2ZM222.629 112L218.568 121.138L218.689 121.192L218.811 121.243L222.629 112ZM236.829 123L228.615 128.704L228.706 128.835L228.801 128.963L236.829 123ZM241.829 143.4V153.4H250.502L251.728 144.814L241.829 143.4ZM220.229 143.4L210.281 142.38L209.151 153.4H220.229V143.4ZM215.629 130.8L208.846 138.148L208.915 138.212L208.985 138.274L215.629 130.8ZM186.629 129.6L181.082 121.279L181.009 121.328L180.937 121.378L186.629 129.6ZM186.829 149.4L181.074 157.578L181.177 157.651L181.282 157.72L186.829 149.4ZM203.429 157.4L199.772 166.708L199.778 166.71L203.429 157.4ZM220.029 165L215.126 173.716L215.126 173.716L220.029 165ZM231.029 174.6L238.965 168.516L238.965 168.516L231.029 174.6ZM229.629 206.8L221.861 200.502L221.851 200.514L221.841 200.527L229.629 206.8ZM213.429 218L216.861 227.393L216.94 227.364L217.019 227.333L213.429 218ZM189.829 211.8C183.354 211.8 177.713 210.725 172.777 208.729L165.281 227.271C172.878 230.342 181.104 231.8 189.829 231.8V211.8ZM172.944 208.798C168.007 206.697 164.547 204.003 162.147 200.892L146.311 213.108C151.111 219.33 157.517 223.969 165.113 227.202L172.944 208.798ZM162.229 201C159.958 197.972 158.829 194.621 158.829 190.6H138.829C138.829 198.845 141.3 206.428 146.229 213L162.229 201ZM158.829 190.6C158.829 190.233 158.886 189.309 159.128 187.614L139.329 184.786C139.038 186.824 138.829 188.833 138.829 190.6H158.829ZM149.229 196.2H171.429V176.2H149.229V196.2ZM161.484 185.153C160.635 193.214 163.219 200.568 169.235 206.138L182.823 191.462C181.639 190.366 181.156 189.32 181.374 187.247L161.484 185.153ZM169.235 206.138C175.227 211.685 183.03 213.8 191.229 213.8V193.8C186.361 193.8 184.031 192.581 182.823 191.462L169.235 206.138ZM191.229 213.8C198.735 213.8 205.797 212.481 211.837 209.168L202.221 191.632C199.994 192.853 196.523 193.8 191.229 193.8V213.8ZM211.837 209.168C215.11 207.373 218.069 204.87 220.178 201.469C222.308 198.033 223.229 194.229 223.229 190.4H203.229C203.229 190.714 203.193 190.872 203.18 190.918C203.17 190.956 203.169 190.948 203.18 190.931C203.222 190.863 203.081 191.16 202.221 191.632L211.837 209.168ZM223.229 190.4C223.229 182.877 219.428 176.905 213.501 173.03L202.556 189.77C203.233 190.212 203.326 190.45 203.27 190.353C203.248 190.314 203.229 190.265 203.22 190.23C203.212 190.2 203.229 190.246 203.229 190.4H223.229ZM213.652 173.131C209.296 170.169 202.976 167.3 195.34 164.437L188.318 183.163C195.615 185.9 200.095 188.098 202.406 189.669L213.652 173.131ZM195.513 164.503C188.653 161.785 183.328 159.354 179.417 157.221L169.84 174.779C174.73 177.446 180.872 180.215 188.145 183.097L195.513 164.503ZM179.417 157.221C176.281 155.51 173.528 153.168 171.136 150.078L155.322 162.322C159.33 167.499 164.176 171.69 169.84 174.779L179.417 157.221ZM171.229 150.2C169.544 147.954 168.429 144.895 168.429 140.4H148.429C148.429 148.438 150.514 155.913 155.229 162.2L171.229 150.2ZM168.429 140.4C168.429 136.01 169.616 132.55 171.829 129.6L155.829 117.6C150.841 124.25 148.429 131.99 148.429 140.4H168.429ZM171.803 129.634C174.307 126.325 177.899 123.544 183.008 121.458L175.45 102.942C167.492 106.19 160.817 111.008 155.855 117.566L171.803 129.634ZM183.101 121.42C188.342 119.219 194.59 118 202.029 118V98C192.402 98 183.449 99.5812 175.357 102.98L183.101 121.42ZM202.029 118C208.609 118 214.053 119.132 218.568 121.138L226.69 102.862C219.205 99.535 210.916 98 202.029 98V118ZM218.811 121.243C223.417 123.145 226.52 125.687 228.615 128.704L245.043 117.296C240.471 110.713 234.107 105.922 226.447 102.757L218.811 121.243ZM228.801 128.963C230.914 131.807 232.029 135.089 232.029 139.2H252.029C252.029 131.045 249.677 123.526 244.856 117.037L228.801 128.963ZM232.029 139.2C232.029 140.957 231.959 141.779 231.929 141.986L251.728 144.814C251.966 143.154 252.029 141.176 252.029 139.2H232.029ZM241.829 133.4H220.229V153.4H241.829V133.4ZM230.177 144.42C231.005 136.341 228.505 128.866 222.273 123.326L208.985 138.274C209.953 139.134 210.519 140.059 210.281 142.38L230.177 144.42ZM222.412 123.452C216.489 117.985 208.702 116 200.629 116V136C205.622 136 207.836 137.215 208.846 138.148L222.412 123.452ZM200.629 116C193.552 116 186.781 117.48 181.082 121.279L192.176 137.92C193.677 136.92 196.239 136 200.629 136V116ZM180.937 121.378C174.837 125.601 171.429 131.907 171.429 139.4H191.429C191.429 138.772 191.548 138.564 191.562 138.537C191.58 138.503 191.717 138.24 192.321 137.822L180.937 121.378ZM171.429 139.4C171.429 147.029 175.016 153.315 181.074 157.578L192.584 141.222C191.845 140.702 191.632 140.348 191.578 140.249C191.537 140.172 191.429 139.962 191.429 139.4H171.429ZM181.282 157.72C185.779 160.719 192.102 163.694 199.772 166.708L207.085 148.092C199.822 145.239 195.078 142.881 192.376 141.079L181.282 157.72ZM199.778 166.71C206.335 169.281 211.407 171.623 215.126 173.716L224.932 156.284C220.118 153.577 214.123 150.852 207.08 148.09L199.778 166.71ZM215.126 173.716C218.179 175.433 220.824 177.725 223.093 180.684L238.965 168.516C235.1 163.475 230.412 159.367 224.932 156.284L215.126 173.716ZM223.093 180.684C224.579 182.623 225.629 185.367 225.629 189.6H245.629C245.629 181.833 243.612 174.577 238.965 168.516L223.093 180.684ZM225.629 189.6C225.629 193.911 224.373 197.405 221.861 200.502L237.396 213.098C242.885 206.329 245.629 198.355 245.629 189.6H225.629ZM221.841 200.527C219.287 203.698 215.465 206.503 209.839 208.667L217.019 227.333C225.259 224.164 232.238 219.502 237.416 213.073L221.841 200.527ZM209.997 208.607C204.352 210.67 197.677 211.8 189.829 211.8V231.8C199.58 231.8 208.639 230.397 216.861 227.393L209.997 208.607ZM375.265 109.8L385.113 111.534L387.179 99.8H375.265V109.8ZM355.865 220V230H364.258L365.713 221.734L355.865 220ZM333.065 220L323.205 218.331L321.23 230H333.065V220ZM335.265 207L345.125 208.669L350.492 176.954L328.089 200.035L335.265 207ZM319.265 217.8L323.082 227.043L323.132 227.022L323.18 227.002L319.265 217.8ZM272.465 212.2L265.759 219.619L272.465 212.2ZM263.065 174.6L253.216 172.867L253.2 172.962L253.185 173.056L263.065 174.6ZM274.465 109.8V99.8H266.071L264.616 108.067L274.465 109.8ZM297.065 109.8L306.914 111.532L308.977 99.8H297.065V109.8ZM286.265 171.2L276.416 169.468L276.388 169.626L276.365 169.786L286.265 171.2ZM291.465 196L284.515 203.19L284.573 203.247L284.633 203.303L291.465 196ZM329.865 194.4L336.301 202.054L336.351 202.011L336.401 201.968L329.865 194.4ZM341.465 172.6L351.276 174.535L351.297 174.43L351.315 174.325L341.465 172.6ZM352.465 109.8V99.8H344.064L342.615 108.075L352.465 109.8ZM365.416 108.066L346.016 218.266L365.713 221.734L385.113 111.534L365.416 108.066ZM355.865 210H333.065V230H355.865V210ZM342.925 221.669L345.125 208.669L325.405 205.331L323.205 218.331L342.925 221.669ZM328.089 200.035C324.686 203.541 320.488 206.412 315.349 208.598L323.18 227.002C330.575 223.855 337.043 219.526 342.441 213.965L328.089 200.035ZM315.447 208.557C310.505 210.599 305.467 211.6 300.265 211.6V231.6C308.129 231.6 315.758 230.068 323.082 227.043L315.447 208.557ZM300.265 211.6C290.519 211.6 283.85 209.011 279.17 204.781L265.759 219.619C274.946 227.922 286.81 231.6 300.265 231.6V211.6ZM279.17 204.781C274.799 200.83 272.065 194.932 272.065 185.6H252.065C252.065 199.201 256.264 211.036 265.759 219.619L279.17 204.781ZM272.065 185.6C272.065 183.211 272.329 180.088 272.945 176.144L253.185 173.056C252.468 177.645 252.065 181.855 252.065 185.6H272.065ZM272.914 176.333L284.314 111.533L264.616 108.067L253.216 172.867L272.914 176.333ZM274.465 119.8H297.065V99.8H274.465V119.8ZM287.216 108.068L276.416 169.468L296.114 172.932L306.914 111.532L287.216 108.068ZM276.365 169.786C275.83 173.531 275.465 176.821 275.465 179.2H295.465C295.465 178.379 295.633 176.336 296.164 172.614L276.365 169.786ZM275.465 179.2C275.465 188.345 278.002 196.894 284.515 203.19L298.415 188.81C296.928 187.373 295.465 184.722 295.465 179.2H275.465ZM284.633 203.303C291.084 209.337 299.445 211.8 308.465 211.8V191.8C303.084 191.8 300.112 190.396 298.296 188.697L284.633 203.303ZM308.465 211.8C318.978 211.8 328.455 208.651 336.301 202.054L323.429 186.746C319.541 190.015 314.752 191.8 308.465 191.8V211.8ZM336.401 201.968C344.337 195.115 349.085 185.644 351.276 174.535L331.654 170.665C330.111 178.489 327.126 183.552 323.329 186.832L336.401 201.968ZM351.315 174.325L362.315 111.525L342.615 108.075L331.615 170.875L351.315 174.325ZM352.465 119.8H375.265V99.8H352.465V119.8ZM410.748 91.8L403.677 98.8711L403.677 98.8711L410.748 91.8ZM412.548 71.2L419.479 78.4083L419.484 78.4032L412.548 71.2ZM433.348 69.4L426.066 76.2536L426.169 76.364L426.277 76.4711L433.348 69.4ZM431.548 90.2L438.479 97.4083L438.549 97.3404L438.619 97.2711L431.548 90.2ZM428.148 109.8L437.996 111.534L440.062 99.8H428.148V109.8ZM408.748 220V230H417.141L418.596 221.734L408.748 220ZM385.948 220L376.099 218.266L374.033 230H385.948V220ZM405.348 109.8V99.8H396.954L395.499 108.066L405.348 109.8ZM419.548 85.2C418.243 85.2 417.972 84.8824 417.819 84.7289L403.677 98.8711C408.056 103.251 413.652 105.2 419.548 105.2V85.2ZM417.819 84.7289C417.59 84.4998 417.348 84.253 417.348 83.2H397.348C397.348 89.0803 399.372 94.5669 403.677 98.8711L417.819 84.7289ZM417.348 83.2C417.348 81.3456 417.905 79.9211 419.479 78.4083L405.617 63.9917C400.257 69.1455 397.348 75.721 397.348 83.2H417.348ZM419.484 78.4032C421.429 76.5302 423.077 76 424.748 76V56C417.352 56 410.866 58.9364 405.611 63.9968L419.484 78.4032ZM424.748 76C425.497 76 425.837 76.1165 425.921 76.1496C425.966 76.1675 425.983 76.1789 425.987 76.1818C425.992 76.1848 426.017 76.2022 426.066 76.2536L440.63 62.5464C436.306 57.9523 430.633 56 424.748 56V76ZM426.277 76.4711C426.506 76.7002 426.748 76.947 426.748 78H446.748C446.748 72.1197 444.723 66.6331 440.419 62.3289L426.277 76.4711ZM426.748 78C426.748 79.8689 426.173 81.4321 424.477 83.1289L438.619 97.2711C443.855 92.0345 446.748 85.4644 446.748 78H426.748ZM424.617 82.9917C422.888 84.6541 421.328 85.2 419.548 85.2V105.2C426.834 105.2 433.274 102.413 438.479 97.4083L424.617 82.9917ZM418.299 108.066L398.899 218.266L418.596 221.734L437.996 111.534L418.299 108.066ZM408.748 210H385.948V230H408.748V210ZM395.796 221.734L415.196 111.534L395.499 108.066L376.099 218.266L395.796 221.734ZM405.348 119.8H428.148V99.8H405.348V119.8ZM470.682 189.4L460.835 187.657L460.806 187.821L460.783 187.986L470.682 189.4ZM472.882 199.2L466.785 207.126L466.984 207.279L467.19 207.422L472.882 199.2ZM495.482 201L505.326 202.761L507.43 191H495.482V201ZM492.082 220V230H500.451L501.926 221.761L492.082 220ZM453.882 214.8L447.774 222.718L447.846 222.773L447.919 222.827L453.882 214.8ZM447.682 189.4L457.488 191.361L457.51 191.252L457.529 191.143L447.682 189.4ZM458.482 128.4L468.329 130.143L470.408 118.4H458.482V128.4ZM445.482 128.4L435.627 126.704L433.615 138.4H445.482V128.4ZM448.682 109.8V99.8H440.256L438.827 108.104L448.682 109.8ZM461.882 109.8V119.8H470.282L471.732 111.526L461.882 109.8ZM466.682 82.4V72.4H458.282L456.832 80.6744L466.682 82.4ZM489.682 82.4L499.532 84.1255L501.586 72.4H489.682V82.4ZM484.882 109.8L475.032 108.074L472.978 119.8H484.882V109.8ZM511.482 109.8L521.337 111.496L523.349 99.8H511.482V109.8ZM508.282 128.4V138.4H516.709L518.137 130.096L508.282 128.4ZM481.482 128.4V118.4H473.097L471.635 126.657L481.482 128.4ZM460.783 187.986C460.545 189.649 460.282 191.611 460.282 193H480.282C480.282 193.231 480.27 193.34 480.278 193.242C480.283 193.172 480.296 193.032 480.321 192.804C480.372 192.348 480.456 191.695 480.582 190.814L460.783 187.986ZM460.282 193C460.282 197.951 461.923 203.386 466.785 207.126L478.979 191.274C479.224 191.462 479.47 191.702 479.688 191.988C479.906 192.272 480.056 192.549 480.154 192.783C480.345 193.238 480.282 193.392 480.282 193H460.282ZM467.19 207.422C471.531 210.427 477.001 211 481.482 211V191C479.939 191 478.946 190.881 478.381 190.762C477.78 190.636 478.005 190.584 478.574 190.978L467.19 207.422ZM481.482 211H495.482V191H481.482V211ZM485.638 199.239L482.238 218.239L501.926 221.761L505.326 202.761L485.638 199.239ZM492.082 210H474.082V230H492.082V210ZM474.082 210C466.386 210 462.105 208.451 459.845 206.773L447.919 222.827C454.993 228.082 464.178 230 474.082 230V210ZM459.99 206.882C458.504 205.736 456.882 203.483 456.882 197.8H436.882C436.882 207.583 439.927 216.664 447.774 222.718L459.99 206.882ZM456.882 197.8C456.882 195.474 457.093 193.334 457.488 191.361L437.876 187.439C437.204 190.8 436.882 194.259 436.882 197.8H456.882ZM457.529 191.143L468.329 130.143L448.635 126.657L437.835 187.657L457.529 191.143ZM458.482 118.4H445.482V138.4H458.482V118.4ZM455.337 130.096L458.537 111.496L438.827 108.104L435.627 126.704L455.337 130.096ZM448.682 119.8H461.882V99.8H448.682V119.8ZM471.732 111.526L476.532 84.1255L456.832 80.6744L452.032 108.074L471.732 111.526ZM466.682 92.4H489.682V72.4H466.682V92.4ZM479.832 80.6744L475.032 108.074L494.732 111.526L499.532 84.1255L479.832 80.6744ZM484.882 119.8H511.482V99.8H484.882V119.8ZM501.627 108.104L498.427 126.704L518.137 130.096L521.337 111.496L501.627 108.104ZM508.282 118.4H481.482V138.4H508.282V118.4ZM471.635 126.657L460.835 187.657L480.529 191.143L491.329 130.143L471.635 126.657ZM613.096 119.6L606.205 126.847L606.235 126.875L606.265 126.903L613.096 119.6ZM624.496 161.8L634.335 163.589L634.357 163.467L634.376 163.344L624.496 161.8ZM621.696 172.6V182.6H629.048L631.241 175.583L621.696 172.6ZM537.496 172.6V162.6H528.823L527.597 171.186L537.496 172.6ZM544.496 195.6L537.525 202.77L537.574 202.818L537.624 202.865L544.496 195.6ZM592.296 187.2V177.2H586.866L583.909 181.754L592.296 187.2ZM616.896 187.2L625.84 191.672L633.076 177.2H616.896V187.2ZM594.496 212.2L599.938 220.59L599.978 220.564L600.017 220.538L594.496 212.2ZM536.096 216.4L540.704 207.525L540.704 207.525L536.096 216.4ZM519.896 201L511.203 205.943L511.224 205.98L511.246 206.017L519.896 201ZM515.296 164.8L525.135 166.589L525.139 166.563L525.144 166.538L515.296 164.8ZM527.496 135L535.616 140.836L535.638 140.807L535.659 140.777L527.496 135ZM550.296 115L545.772 106.082L545.746 106.095L545.72 106.109L550.296 115ZM601.696 156.2V166.2H610.647L611.635 157.304L601.696 156.2ZM594.696 133.6L588.052 141.074L588.103 141.119L588.155 141.164L594.696 133.6ZM540.496 156.2L530.839 153.605L527.455 166.2H540.496V156.2ZM580.296 118C592.07 118 600.328 121.258 606.205 126.847L619.987 112.353C609.598 102.475 595.989 98 580.296 98V118ZM606.265 126.903C612.192 132.448 615.496 140.034 615.496 150.8H635.496C635.496 135.433 630.533 122.219 619.928 112.297L606.265 126.903ZM615.496 150.8C615.496 153.189 615.232 156.312 614.616 160.256L634.376 163.344C635.093 158.755 635.496 154.545 635.496 150.8H615.496ZM614.657 160.011C614.224 162.395 613.416 165.57 612.151 169.617L631.241 175.583C632.643 171.097 633.702 167.071 634.335 163.589L614.657 160.011ZM621.696 162.6H537.496V182.6H621.696V162.6ZM527.597 171.186C527.359 172.846 527.296 174.824 527.296 176.8H547.296C547.296 175.043 547.366 174.221 547.396 174.014L527.597 171.186ZM527.296 176.8C527.296 186.856 530.45 195.891 537.525 202.77L551.467 188.43C548.942 185.975 547.296 182.477 547.296 176.8H527.296ZM537.624 202.865C544.708 209.565 553.708 212.6 563.696 212.6V192.6C557.951 192.6 554.151 190.968 551.368 188.335L537.624 202.865ZM563.696 212.6C579.429 212.6 592.143 205.797 600.683 192.646L583.909 181.754C579.116 189.136 572.763 192.6 563.696 192.6V212.6ZM592.296 197.2H616.896V177.2H592.296V197.2ZM607.952 182.728C603.704 191.224 597.45 198.251 588.975 203.862L600.017 220.538C611.276 213.083 619.955 203.443 625.84 191.672L607.952 182.728ZM589.054 203.81C580.968 209.056 571.498 211.8 560.296 211.8V231.8C574.961 231.8 588.291 228.144 599.938 220.59L589.054 203.81ZM560.296 211.8C552.416 211.8 545.981 210.265 540.704 207.525L531.488 225.275C540.078 229.735 549.776 231.8 560.296 231.8V211.8ZM540.704 207.525C535.433 204.788 531.446 200.982 528.546 195.983L511.246 206.017C516.08 214.351 522.892 220.812 531.488 225.275L540.704 207.525ZM528.589 196.057C525.707 190.988 524.096 184.812 524.096 177.2H504.096C504.096 187.721 506.352 197.412 511.203 205.943L528.589 196.057ZM524.096 177.2C524.096 174.018 524.426 170.488 525.135 166.589L505.457 163.011C504.566 167.912 504.096 172.649 504.096 177.2H524.096ZM525.144 166.538C526.908 156.54 530.44 148.038 535.616 140.836L519.376 129.164C512.286 139.029 507.684 150.393 505.448 163.062L525.144 166.538ZM535.659 140.777C540.904 133.365 547.294 127.792 554.873 123.891L545.72 106.109C535.165 111.541 526.355 119.301 519.333 129.223L535.659 140.777ZM554.82 123.918C562.552 119.996 570.992 118 580.296 118V98C568 98 556.441 100.67 545.772 106.082L554.82 123.918ZM611.635 157.304C611.905 154.877 612.096 152.667 612.096 151H592.096C592.096 151.467 592.021 152.723 591.757 155.096L611.635 157.304ZM612.096 151C612.096 141.167 608.655 132.452 601.238 126.036L588.155 141.164C590.604 143.282 592.096 146.167 592.096 151H612.096ZM601.34 126.126C594.351 119.914 585.553 117.2 575.896 117.2V137.2C581.706 137.2 585.441 138.753 588.052 141.074L601.34 126.126ZM575.896 117.2C565.436 117.2 555.921 120.608 547.669 127.176L560.124 142.824C564.938 138.992 570.089 137.2 575.896 137.2V117.2ZM547.669 127.176C539.282 133.851 533.73 142.841 530.839 153.605L550.154 158.795C552.062 151.692 555.443 146.549 560.124 142.824L547.669 127.176ZM540.496 166.2H601.696V146.2H540.496V166.2Z" fill="url(#paint0_linear_36_18)" mask="url(#path-1-outside-1_36_18)"/>
<defs>
<linearGradient id="paint0_linear_36_18" x1="18" y1="150" x2="632" y2="150" gradientUnits="userSpaceOnUse">
<stop stop-color="#FF5876"/>
<stop offset="1" stop-color="#FFE8EA"/>
</linearGradient>
</defs>
</svg>
