<svg width="200" height="200" viewBox="0 0 200 200" fill="none" xmlns="http://www.w3.org/2000/svg">
<g filter="url(#filter0_d_32_13)">
<mask id="path-1-outside-1_32_13" maskUnits="userSpaceOnUse" x="29" y="21" width="168" height="159" fill="black">
<rect fill="white" x="29" y="21" width="168" height="159"/>
<path d="M98.5188 100.6L147.719 170H117.919L75.1188 107.8L64.1188 170H41.3188L65.9188 31H88.7188L77.5188 94.4L142.719 31H171.319L98.5188 100.6Z"/>
</mask>
<path d="M98.5188 100.6L91.6083 93.3719L85.3668 99.339L90.3608 106.383L98.5188 100.6ZM147.719 170V180H167.066L155.877 164.217L147.719 170ZM117.919 170L109.681 175.669L112.661 180H117.919V170ZM75.1188 107.8L83.3568 102.131L69.5218 82.0253L65.2716 106.059L75.1188 107.8ZM64.1188 170V180H72.5054L73.966 171.741L64.1188 170ZM41.3187 170L31.4718 168.257L29.3936 180H41.3187V170ZM65.9188 31V21H57.5331L56.0718 29.2573L65.9188 31ZM88.7188 31L98.5663 32.7396L100.64 21H88.7188V31ZM77.5188 94.4L67.6712 92.6604L62.2826 123.164L84.4902 101.569L77.5188 94.4ZM142.719 31V21H138.658L135.747 23.8307L142.719 31ZM171.319 31L178.229 38.2281L196.249 21H171.319V31ZM90.3608 106.383L139.561 175.783L155.877 164.217L106.677 94.8166L90.3608 106.383ZM147.719 160H117.919V180H147.719V160ZM126.157 164.331L83.3568 102.131L66.8807 113.469L109.681 175.669L126.157 164.331ZM65.2716 106.059L54.2716 168.259L73.966 171.741L84.966 109.541L65.2716 106.059ZM64.1188 160H41.3187V180H64.1188V160ZM51.1657 171.743L75.7657 32.7427L56.0718 29.2573L31.4718 168.257L51.1657 171.743ZM65.9188 41H88.7188V21H65.9188V41ZM78.8712 29.2604L67.6712 92.6604L87.3663 96.1396L98.5663 32.7396L78.8712 29.2604ZM84.4902 101.569L149.69 38.1693L135.747 23.8307L70.5473 87.2307L84.4902 101.569ZM142.719 41H171.319V21H142.719V41ZM164.408 23.7718L91.6083 93.3719L105.429 107.828L178.229 38.2281L164.408 23.7718Z" fill="url(#paint0_linear_32_13)" mask="url(#path-1-outside-1_32_13)"/>
</g>
<defs>
<filter id="filter0_d_32_13" x="26.7188" y="16.4" width="159.2" height="168.2" filterUnits="userSpaceOnUse" color-interpolation-filters="sRGB">
<feFlood flood-opacity="0" result="BackgroundImageFix"/>
<feColorMatrix in="SourceAlpha" type="matrix" values="0 0 0 0 0 0 0 0 0 0 0 0 0 0 0 0 0 0 127 0" result="hardAlpha"/>
<feOffset/>
<feGaussianBlur stdDeviation="7.3"/>
<feColorMatrix type="matrix" values="0 0 0 0 0.8 0 0 0 0 0.207843 0 0 0 0 0.854902 0 0 0 1 0"/>
<feBlend mode="normal" in2="BackgroundImageFix" result="effect1_dropShadow_32_13"/>
<feBlend mode="normal" in="SourceGraphic" in2="effect1_dropShadow_32_13" result="shape"/>
</filter>
<linearGradient id="paint0_linear_32_13" x1="200" y1="100" x2="2.24553e-06" y2="100" gradientUnits="userSpaceOnUse">
<stop stop-color="white"/>
<stop offset="1" stop-color="#D29CD8"/>
</linearGradient>
</defs>
</svg>
